<?xml version="1.0" standalone="no"?>
<!DOCTYPE svg PUBLIC "-//W3C//DTD SVG 20010904//EN"
 "http://www.w3.org/TR/2001/REC-SVG-20010904/DTD/svg10.dtd">
<svg version="1.0" xmlns="http://www.w3.org/2000/svg"
 width="1024.000000pt" height="1024.000000pt" viewBox="0 0 1024.000000 1024.000000"
 preserveAspectRatio="xMidYMid meet">

<g transform="translate(0.000000,1024.000000) scale(0.100000,-0.100000)"
fill="#000000" stroke="none">
<path d="M0 10140 l0 -100 33 -1 32 -1 -30 -7 -30 -6 -3 -1145 c-2 -948 0
-1142 11 -1130 7 8 58 65 113 125 55 61 163 182 240 270 76 88 161 185 189
216 27 30 109 122 180 204 72 82 168 192 215 244 88 99 140 165 140 176 0 4
-11 5 -25 3 -14 -3 -28 -2 -30 2 -3 4 18 10 45 14 52 7 71 22 49 38 -11 8 -10
9 4 4 13 -4 37 15 90 72 124 133 197 201 302 280 6 4 37 20 70 36 69 32 97 54
88 69 -3 6 -1 7 6 3 14 -9 165 89 319 206 153 117 159 122 154 138 -5 13 -3
13 11 1 11 -9 17 -10 17 -2 0 6 6 11 13 11 7 0 29 14 50 31 48 40 48 25 0 -21
-51 -47 -94 -97 -138 -159 -20 -28 -41 -48 -46 -45 -5 3 -9 2 -9 -3 0 -4 -23
-32 -50 -61 -27 -29 -49 -59 -47 -65 1 -7 -4 -11 -12 -9 -19 4 -43 -30 -28
-41 8 -6 6 -7 -4 -4 -10 3 -29 -8 -48 -29 -18 -19 -40 -34 -48 -34 -13 0 -13
-3 -3 -16 11 -13 10 -16 -8 -21 -13 -3 -23 -16 -27 -34 -6 -25 -10 -28 -33
-24 -26 5 -26 5 -4 -5 13 -5 20 -15 16 -21 -4 -8 -9 -7 -15 2 -8 12 -11 12
-18 -1 -6 -9 -26 -15 -49 -15 -37 0 -38 -1 -20 -13 14 -11 23 -11 31 -3 14 14
30 15 22 1 -3 -5 0 -7 8 -4 9 3 17 -3 20 -16 6 -25 -1 -50 -15 -50 -5 0 -5 -6
0 -16 11 -19 -7 -64 -25 -64 -7 0 -13 -10 -14 -22 0 -13 -3 -17 -6 -10 -3 9
-27 -10 -68 -52 -34 -36 -65 -62 -69 -58 -4 4 -6 2 -4 -4 2 -5 -19 -35 -46
-65 -27 -30 -46 -47 -41 -39 9 17 -33 -29 -80 -87 -16 -20 -47 -49 -67 -63
-21 -15 -34 -31 -30 -35 4 -4 -4 -4 -18 -1 -17 5 -21 4 -11 -2 17 -12 5 -33
-17 -30 -10 2 -16 -3 -14 -11 2 -8 -9 -26 -23 -42 -15 -15 -27 -31 -26 -36 1
-4 -3 -8 -8 -8 -5 0 -25 -15 -45 -32 -19 -18 -40 -33 -45 -33 -16 0 -53 -60
-47 -75 3 -8 2 -15 -2 -15 -5 0 -21 -18 -38 -39 -30 -42 -68 -63 -57 -32 4 9
-9 -4 -28 -27 -19 -24 -53 -64 -75 -88 -23 -24 -39 -44 -37 -44 3 0 -7 -10
-23 -22 -34 -26 -53 -49 -54 -63 0 -5 5 -3 10 5 5 8 10 11 10 5 0 -5 -24 -34
-53 -62 -28 -29 -89 -89 -135 -135 -45 -45 -82 -87 -82 -93 0 -17 -105 -117
-114 -108 -4 5 -6 3 -4 -2 4 -13 -36 -65 -51 -65 -10 0 -15 -14 -12 -32 0 -5
-3 -8 -7 -8 -4 0 -39 -30 -78 -66 -38 -37 -79 -76 -92 -88 -12 -11 -20 -27
-17 -34 3 -7 1 -10 -4 -7 -6 3 -18 -6 -28 -21 -10 -14 -26 -34 -35 -45 -17
-18 -18 -207 -18 -3674 l0 -3655 5120 0 5120 0 0 2465 c0 2423 0 2465 -20
2507 -10 24 -83 205 -161 403 -78 198 -177 448 -219 555 -42 107 -85 220 -95
250 -19 58 -90 238 -130 330 -13 30 -47 118 -75 195 -28 77 -62 169 -75 205
-14 36 -45 124 -71 195 -50 140 -84 229 -229 595 -51 129 -127 323 -169 430
-41 107 -96 245 -121 305 -44 105 -97 236 -199 498 -25 65 -46 120 -46 122 0
2 -64 161 -141 352 -78 191 -165 413 -194 493 -30 80 -67 177 -83 215 -16 39
-32 82 -36 97 l-6 28 -4085 0 -4085 0 0 -100z m3735 0 c-3 -5 -60 -9 -128 -10
-331 -6 -407 -6 -400 1 4 4 111 10 237 13 127 4 231 8 233 10 7 6 62 -7 58
-14z m152 6 c4 -3 -27 -6 -68 -6 -41 0 -69 4 -62 8 13 8 122 7 130 -2z m-3524
-3 c-7 -2 -19 -2 -25 0 -7 3 -2 5 12 5 14 0 19 -2 13 -5z m1047 -13 c0 -5 -2
-10 -4 -10 -3 0 -8 5 -11 10 -3 6 -1 10 4 10 6 0 11 -4 11 -10z m1703 -7 c-7
-2 -19 -2 -25 0 -7 3 -2 5 12 5 14 0 19 -2 13 -5z m-2916 -19 c-3 -3 -12 -4
-19 -1 -8 3 -5 6 6 6 11 1 17 -2 13 -5z m2011 -1 c-10 -2 -28 -2 -40 0 -13 2
-5 4 17 4 22 1 32 -1 23 -4z m-283 -10 c-96 -7 -203 -7 -198 0 2 4 57 6 121 5
64 -1 99 -3 77 -5z m123 0 c-16 -2 -40 -2 -55 0 -16 2 -3 4 27 4 30 0 43 -2
28 -4z m1512 -3 c0 -5 -9 -10 -20 -10 -11 0 -20 5 -20 10 0 6 9 10 20 10 11 0
20 -4 20 -10z m53 3 c-7 -2 -19 -2 -25 0 -7 3 -2 5 12 5 14 0 19 -2 13 -5z
m90 0 c-13 -2 -33 -2 -45 0 -13 2 -3 4 22 4 25 0 35 -2 23 -4z m100 0 c-7 -2
-21 -2 -30 0 -10 3 -4 5 12 5 17 0 24 -2 18 -5z m-2120 -10 c-18 -2 -48 -2
-65 0 -18 2 -4 4 32 4 36 0 50 -2 33 -4z m1385 0 c-15 -2 -42 -2 -60 0 -18 2
-6 4 27 4 33 0 48 -2 33 -4z m115 0 c-13 -2 -35 -2 -50 0 -16 2 -5 4 22 4 28
0 40 -2 28 -4z m305 0 c-16 -2 -40 -2 -55 0 -16 2 -3 4 27 4 30 0 43 -2 28 -4z
m-2640 -10 c-15 -2 -42 -2 -60 0 -18 2 -6 4 27 4 33 0 48 -2 33 -4z m569 1
c-3 -3 -12 -4 -19 -1 -8 3 -5 6 6 6 11 1 17 -2 13 -5z m120 -1 c-20 -2 -52 -2
-70 0 -17 2 0 4 38 4 39 0 53 -2 32 -4z m1811 0 c-21 -2 -55 -2 -75 0 -21 2
-4 4 37 4 41 0 58 -2 38 -4z m-1538 -7 c0 -2 -7 -7 -16 -10 -8 -3 -12 -2 -9 4
6 10 25 14 25 6z m47 -2 c-3 -3 -12 -4 -19 -1 -8 3 -5 6 6 6 11 1 17 -2 13 -5z
m-607 -14 c0 -5 -4 -10 -9 -10 -6 0 -13 5 -16 10 -3 6 1 10 9 10 9 0 16 -4 16
-10z m430 6 c0 -11 -19 -15 -25 -6 -3 5 1 10 9 10 9 0 16 -2 16 -4z m210 -6
c0 -5 -2 -10 -4 -10 -3 0 -8 5 -11 10 -3 6 -1 10 4 10 6 0 11 -4 11 -10z m65
0 c-3 -5 -12 -7 -20 -3 -21 7 -19 13 6 13 11 0 18 -4 14 -10z m1235 0 c0 -5
-2 -10 -4 -10 -3 0 -8 5 -11 10 -3 6 -1 10 4 10 6 0 11 -4 11 -10z m-2795 -10
c-3 -5 -21 -9 -38 -9 l-32 2 35 7 c19 4 36 8 38 9 2 0 0 -3 -3 -9z m105 0 c0
-5 -7 -10 -15 -10 -8 0 -15 5 -15 10 0 6 7 10 15 10 8 0 15 -4 15 -10z m487
-4 c4 -3 -25 -6 -63 -6 -43 0 -64 4 -55 9 14 9 108 7 118 -3z m-704 -3 c-7 -2
-21 -2 -30 0 -10 3 -4 5 12 5 17 0 24 -2 18 -5z m795 0 c-10 -2 -28 -2 -40 0
-13 2 -5 4 17 4 22 1 32 -1 23 -4z m52 -3 c8 -5 11 -10 5 -10 -5 0 -17 5 -25
10 -8 5 -10 10 -5 10 6 0 17 -5 25 -10z m-350 -29 c0 -4 -11 -6 -25 -3 -14 2
-25 6 -25 8 0 2 11 4 25 4 14 0 25 -4 25 -9z m-367 -18 c-7 -2 -19 -2 -25 0
-7 3 -2 5 12 5 14 0 19 -2 13 -5z m60 0 c-7 -2 -19 -2 -25 0 -7 3 -2 5 12 5
14 0 19 -2 13 -5z m54 1 c-3 -3 -12 -4 -19 -1 -8 3 -5 6 6 6 11 1 17 -2 13 -5z
m2278 -44 c-3 -5 -13 -10 -21 -10 -8 0 -12 5 -9 10 3 6 13 10 21 10 8 0 12 -4
9 -10z m113 3 c-10 -2 -28 -2 -40 0 -13 2 -5 4 17 4 22 1 32 -1 23 -4z m65 0
c-7 -2 -19 -2 -25 0 -7 3 -2 5 12 5 14 0 19 -2 13 -5z m135 0 c-16 -2 -40 -2
-55 0 -16 2 -3 4 27 4 30 0 43 -2 28 -4z m-480 -10 c-10 -2 -26 -2 -35 0 -10
3 -2 5 17 5 19 0 27 -2 18 -5z m-2415 -20 c-18 -2 -48 -2 -65 0 -18 2 -4 4 32
4 36 0 50 -2 33 -4z m7967 -13 c-20 -13 -43 -13 -35 0 3 6 16 10 28 10 18 0
19 -2 7 -10z m-5555 -20 c-3 -5 -12 -10 -18 -10 -7 0 -6 4 3 10 19 12 23 12
15 0z m5573 -20 c-11 -17 -9 -31 10 -88 26 -72 96 -217 118 -243 23 -26 28
-74 9 -92 -20 -20 -35 -14 -35 15 0 12 -15 54 -34 94 -45 95 -92 229 -101 287
-7 46 -7 47 19 47 24 0 25 -2 14 -20z m48 -92 c15 -46 40 -109 56 -140 15 -32
26 -58 24 -58 -22 0 -116 212 -116 262 0 33 8 19 36 -64z m-7171 53 c-11 -10
-83 -15 -150 -10 -22 2 3 6 55 9 52 3 97 7 100 8 2 1 0 -2 -5 -7z m-245 -11
c0 -5 -10 -10 -22 -9 -22 0 -22 1 -3 9 11 5 21 9 23 9 1 1 2 -3 2 -9z m245
-250 c-3 -5 -18 -10 -33 -9 l-27 1 25 8 c35 11 42 11 35 0z m-210 -10 c3 -5
-1 -10 -9 -10 -9 0 -16 5 -16 10 0 6 4 10 9 10 6 0 13 -4 16 -10z m145 6 c0
-3 -4 -8 -10 -11 -5 -3 -10 -1 -10 4 0 6 5 11 10 11 6 0 10 -2 10 -4z m127 -2
c-3 -3 -12 -4 -19 -1 -8 3 -5 6 6 6 11 1 17 -2 13 -5z m-514 -91 c-7 -2 -21
-2 -30 0 -10 3 -4 5 12 5 17 0 24 -2 18 -5z m625 -60 c-10 -2 -28 -2 -40 0
-13 2 -5 4 17 4 22 1 32 -1 23 -4z m572 -43 c-13 -11 -28 -20 -34 -20 -14 1
32 40 47 40 5 0 0 -9 -13 -20z m6648 -168 c28 -65 72 -179 98 -253 25 -74 54
-150 64 -169 10 -20 43 -96 73 -170 31 -74 67 -164 82 -199 19 -46 24 -66 16
-74 -8 -8 -15 -7 -26 4 -17 17 -88 179 -170 389 -29 74 -73 185 -99 247 -25
61 -54 145 -65 185 -11 40 -27 89 -35 109 -14 34 -13 49 4 49 4 0 30 -53 58
-118z m-7478 78 c0 -5 -2 -10 -4 -10 -3 0 -8 5 -11 10 -3 6 -1 10 4 10 6 0 11
-4 11 -10z m-387 -22 c-2 -5 -28 -7 -56 -7 -43 1 -47 3 -22 8 39 9 84 8 78 -1z
m2430 5 c-7 -2 -19 -2 -25 0 -7 3 -2 5 12 5 14 0 19 -2 13 -5z m-2746 -9 c-3
-3 -12 -4 -19 -1 -8 3 -5 6 6 6 11 1 17 -2 13 -5z m199 -1 c-10 -11 -36 -12
-36 -2 0 5 10 9 22 9 12 0 18 -3 14 -7z m2449 -13 c3 -6 -1 -7 -9 -4 -18 7
-21 14 -7 14 6 0 13 -4 16 -10z m-1965 -174 c0 -3 -4 -8 -10 -11 -5 -3 -10 -1
-10 4 0 6 5 11 10 11 6 0 10 -2 10 -4z m-477 -33 c-13 -2 -33 -2 -45 0 -13 2
-3 4 22 4 25 0 35 -2 23 -4z m-228 -13 c3 -6 -1 -7 -9 -4 -18 7 -21 14 -7 14
6 0 13 -4 16 -10z m98 3 c-7 -2 -21 -2 -30 0 -10 3 -4 5 12 5 17 0 24 -2 18
-5z m-236 -9 c-3 -3 -12 -4 -19 -1 -8 3 -5 6 6 6 11 1 17 -2 13 -5z m76 -1
c-7 -2 -21 -2 -30 0 -10 3 -4 5 12 5 17 0 24 -2 18 -5z m687 -13 c0 -5 -4 -10
-10 -10 -5 0 -10 5 -10 10 0 6 5 10 10 10 6 0 10 -4 10 -10z m70 0 c12 -7 10
-9 -8 -7 -12 0 -22 5 -22 9 0 11 12 10 30 -2z m-202 -7 c-15 -2 -42 -2 -60 0
-18 2 -6 4 27 4 33 0 48 -2 33 -4z m-400 -10 c-10 -2 -26 -2 -35 0 -10 3 -2 5
17 5 19 0 27 -2 18 -5z m232 -27 c0 -3 -4 -8 -10 -11 -5 -3 -10 -1 -10 4 0 6
5 11 10 11 6 0 10 -2 10 -4z m237 -9 c3 -4 -10 -7 -31 -7 -20 0 -35 4 -31 9 6
10 51 8 62 -2z m50 7 c-3 -3 -12 -4 -19 -1 -8 3 -5 6 6 6 11 1 17 -2 13 -5z
m-497 -14 c0 -5 -10 -10 -22 -9 -22 0 -22 1 -3 9 11 5 21 9 23 9 1 1 2 -3 2
-9z m135 0 c-7 -12 -32 -13 -39 -2 -2 4 7 9 20 10 15 1 22 -2 19 -8z m-312 -7
c-7 -2 -19 -2 -25 0 -7 3 -2 5 12 5 14 0 19 -2 13 -5z m-90 -10 c-7 -2 -19 -2
-25 0 -7 3 -2 5 12 5 14 0 19 -2 13 -5z m4327 -177 c30 -9 111 -25 180 -36 69
-11 188 -34 265 -50 154 -33 341 -68 570 -106 230 -38 550 -103 645 -130 69
-20 240 -54 273 -54 23 0 -2 -23 -68 -65 -41 -25 -115 -75 -164 -110 -49 -36
-141 -93 -203 -127 -62 -34 -114 -63 -116 -64 -2 -1 4 -30 14 -64 17 -61 17
-62 48 -56 17 4 101 18 186 32 85 14 189 33 230 44 124 31 298 52 392 48 76
-4 96 -9 164 -43 48 -23 97 -57 125 -86 l47 -48 47 15 c148 44 340 -14 470
-143 65 -64 101 -133 115 -216 22 -141 -17 -249 -153 -419 -45 -57 -116 -150
-157 -208 -40 -58 -89 -124 -108 -147 -32 -40 -33 -44 -17 -59 9 -10 21 -29
27 -43 17 -46 98 -371 133 -536 18 -88 55 -250 81 -360 76 -325 114 -498 114
-524 0 -19 4 -22 23 -18 12 3 51 11 87 17 36 6 111 22 167 36 57 13 108 24
115 24 10 0 13 -37 13 -158 -1 -172 3 -155 -75 -286 l-24 -39 45 6 c24 3 62 9
85 13 39 6 40 5 57 -32 22 -51 77 -257 123 -457 37 -165 71 -266 100 -298 16
-17 15 -19 -12 -30 -16 -6 -71 -21 -123 -35 -52 -13 -96 -25 -98 -28 -2 -2 5
-35 16 -72 12 -38 32 -123 46 -189 14 -66 50 -214 80 -330 108 -416 122 -524
90 -650 -48 -185 -152 -299 -321 -355 -82 -28 -363 -100 -564 -145 -217 -49
-451 -104 -494 -116 -29 -8 -44 -23 -79 -77 -24 -37 -62 -88 -85 -115 -22 -26
-69 -86 -104 -134 -182 -249 -278 -358 -438 -496 -58 -50 -133 -117 -167 -150
-69 -67 -56 -66 -208 -22 -259 75 -479 152 -588 206 -65 33 -176 81 -246 108
-70 27 -175 70 -233 95 -58 25 -117 46 -131 46 -26 0 -181 -36 -387 -91 -63
-16 -176 -43 -250 -59 -74 -16 -182 -40 -239 -54 -202 -49 -320 -42 -458 28
-171 86 -264 188 -307 336 -28 99 -155 686 -192 890 -9 52 -20 105 -25 116
l-8 22 -91 -24 c-132 -34 -130 -35 -123 29 8 80 -41 344 -132 702 -18 72 -31
131 -30 133 2 2 62 14 135 27 72 12 133 25 136 27 2 3 -16 22 -40 42 -85 70
-214 301 -204 367 3 22 8 24 58 26 40 2 283 54 317 69 2 0 -17 68 -42 150 -24
82 -73 282 -109 444 -36 162 -76 338 -90 390 -13 52 -30 122 -36 155 -7 33
-40 184 -75 335 -35 151 -84 370 -109 485 -26 116 -66 291 -90 390 -98 395
-101 412 -89 479 20 111 50 173 117 241 81 81 163 115 368 154 84 16 189 36
233 45 44 8 134 26 200 39 101 21 244 48 574 109 29 5 49 13 45 18 -5 4 -49
13 -99 20 -49 6 -155 24 -235 40 -80 16 -190 36 -245 44 -55 9 -152 25 -215
35 -63 11 -145 23 -182 26 -38 4 -68 11 -68 15 0 10 110 84 213 142 38 22 97
60 130 85 34 25 161 104 282 176 233 138 272 161 620 375 121 74 252 154 290
177 39 23 93 56 120 74 28 18 57 30 65 27 8 -3 40 -12 70 -20z m-3206 -628
c-43 -62 -76 -100 -82 -94 -7 8 102 146 115 146 2 0 -13 -24 -33 -52z m-113
-131 c-13 -12 -20 -15 -16 -7 14 26 28 41 33 35 3 -3 -5 -16 -17 -28z m7907
-222 c99 -236 135 -333 128 -351 -4 -10 -10 -14 -16 -8 -21 22 -180 441 -180
475 0 36 13 14 68 -116z m-236 -2326 c25 -124 35 -154 50 -157 11 -2 20 -26
31 -85 9 -45 29 -147 46 -227 16 -80 39 -199 51 -266 30 -171 51 -236 80 -251
23 -11 21 -13 -35 -38 -68 -30 -143 -50 -152 -42 -3 4 0 20 7 37 14 33 5 157
-25 375 -8 55 -23 168 -35 251 -11 83 -25 165 -30 183 -6 22 -5 39 2 50 7 12
6 38 -6 95 -9 43 -16 87 -16 98 0 32 24 15 32 -23z m268 -1108 c-15 -9 -199
-51 -221 -51 -32 0 10 15 98 36 107 24 148 29 123 15z m-47 -71 c10 -12 17
-37 17 -60 0 -36 -3 -40 -25 -41 -14 -1 -30 -2 -37 -3 -6 -1 -12 8 -14 19 -2
11 -10 25 -19 31 -18 14 -16 50 3 47 7 -2 12 1 12 6 0 8 11 13 40 20 3 0 13
-8 23 -19z m142 -150 c-3 -5 -1 -10 6 -10 8 0 9 -3 4 -9 -9 -9 -208 -51 -241
-51 -24 0 -16 19 16 35 62 32 230 60 215 35z m-3 -112 c-40 -13 -58 -24 -51
-29 9 -5 4 -10 -14 -14 -15 -4 -27 -12 -27 -17 0 -6 8 -7 18 -4 9 4 2 -5 -15
-19 -23 -19 -33 -35 -33 -55 0 -34 -26 -47 -40 -20 -5 10 -10 34 -10 53 0 26
-6 39 -25 51 -22 14 -23 19 -13 36 17 26 73 38 183 38 l90 0 -63 -20z m733
-3217 c-28 -27 -285 -79 -285 -58 0 13 66 51 99 57 61 11 197 12 186 1z m90
-107 c-28 -21 -160 -61 -230 -69 -64 -7 -126 8 -109 25 10 10 283 58 334 59
24 0 24 0 5 -15z"/>
<path d="M4225 8509 c-189 -120 -314 -196 -690 -420 -399 -239 -485 -292 -485
-300 0 -4 30 -12 68 -19 37 -6 123 -22 192 -35 69 -13 233 -40 365 -61 132
-21 246 -42 253 -47 6 -5 12 -17 12 -26 0 -9 9 -57 21 -108 18 -78 24 -92 43
-95 11 -2 20 -9 19 -15 -7 -35 67 -304 103 -375 12 -24 12 -27 -11 -42 -22
-15 -25 -23 -25 -79 0 -44 7 -76 24 -112 47 -100 174 -245 215 -245 15 0 24
-15 41 -64 11 -35 35 -85 53 -111 59 -88 65 -100 71 -141 5 -34 -1 -54 -34
-123 -22 -45 -71 -128 -110 -185 -59 -87 -88 -118 -207 -218 -76 -64 -172
-144 -213 -177 -77 -61 -212 -181 -312 -278 -101 -98 -120 -197 -117 -592 l3
-275 -30 -8 c-79 -23 -226 -38 -263 -28 -60 16 -71 37 -107 198 -17 81 -48
219 -68 307 -20 88 -52 233 -71 323 -19 89 -51 228 -70 310 -20 81 -54 230
-75 332 -21 102 -50 230 -63 285 -14 55 -31 127 -37 160 -7 33 -41 177 -76
320 l-64 259 25 36 c37 54 72 68 217 91 73 11 151 24 173 29 22 5 135 25 250
45 116 20 281 52 369 71 87 19 192 39 233 44 41 4 76 10 78 12 2 2 -5 40 -16
83 -43 168 -36 155 -73 155 -46 0 -211 -29 -596 -105 -179 -35 -368 -71 -420
-80 -191 -32 -293 -56 -342 -81 -64 -32 -124 -88 -149 -137 -40 -78 -37 -107
46 -442 42 -171 85 -353 96 -405 11 -52 31 -138 44 -190 13 -52 34 -142 45
-200 11 -58 36 -170 55 -250 19 -80 53 -224 75 -320 22 -96 56 -240 74 -320
19 -80 53 -233 76 -340 55 -258 66 -293 114 -347 38 -43 157 -112 196 -114 31
-1 -29 -19 -231 -69 -222 -54 -277 -72 -286 -96 -18 -48 82 -185 171 -232 48
-26 58 -27 186 -27 125 1 146 4 290 42 85 22 205 51 265 63 61 12 162 35 225
51 113 29 193 47 500 114 85 19 261 59 390 90 399 95 876 205 1015 235 50 10
140 30 200 45 61 14 218 48 350 76 246 51 405 85 765 164 113 24 280 58 372
75 166 30 219 45 275 73 52 27 133 108 159 158 49 97 71 243 39 255 -8 3 -61
-5 -117 -20 -57 -14 -121 -28 -143 -32 -22 -3 -89 -17 -149 -30 -133 -30 -154
-28 -98 9 23 15 59 52 79 83 33 50 37 62 36 117 -1 57 -44 271 -92 457 -29
115 -89 374 -110 480 -11 52 -31 140 -44 195 -14 55 -33 135 -42 178 -9 42
-19 77 -23 77 -4 0 -21 -22 -39 -48 -17 -26 -60 -85 -94 -132 l-61 -84 22
-101 c12 -55 37 -161 56 -237 19 -75 48 -203 65 -285 16 -81 46 -212 65 -289
19 -78 34 -153 34 -167 0 -31 -52 -66 -110 -74 -38 -5 -39 -4 -75 51 -20 32
-72 120 -115 196 -95 166 -153 257 -209 328 -43 54 -98 89 -124 79 -21 -8 -45
-87 -36 -119 7 -26 -9 -44 -37 -40 -14 3 -86 -82 -184 -218 -46 -63 -116 -158
-157 -210 -41 -52 -98 -133 -126 -179 -94 -153 -96 -154 -312 -209 -44 -11
-150 -38 -235 -61 -134 -36 -335 -71 -407 -71 -20 0 -23 5 -23 42 0 36 -7 48
-52 98 -69 73 -150 168 -194 226 -120 157 -303 486 -319 572 -3 20 -15 44 -27
53 -19 14 -19 19 -7 79 l12 63 27 -74 c14 -41 56 -123 92 -184 36 -60 80 -137
97 -170 59 -112 243 -385 334 -496 41 -51 107 -99 135 -99 15 0 110 242 138
348 14 53 32 118 40 144 l16 48 -49 72 c-72 108 -80 131 -56 165 11 15 25 43
32 61 8 17 17 32 21 32 4 0 30 -16 56 -35 59 -42 92 -60 99 -53 3 3 8 21 12
41 5 34 4 35 -63 74 -38 22 -115 67 -170 99 l-102 59 102 105 c55 58 126 138
156 178 30 39 60 71 66 72 32 1 64 -187 64 -377 0 -144 1 -144 71 -39 l41 61
-6 75 c-3 41 -9 98 -12 125 l-6 50 53 -51 c30 -28 69 -61 87 -73 17 -12 32
-31 32 -42 0 -10 -24 -47 -53 -81 -85 -101 -231 -309 -254 -363 -11 -28 -26
-81 -33 -120 -22 -119 -59 -265 -101 -387 -21 -65 -39 -129 -39 -143 0 -23 3
-25 28 -19 42 11 175 69 218 96 57 36 141 77 300 147 151 66 163 75 240 186
26 39 120 167 208 285 88 118 218 296 288 395 70 99 171 239 223 310 52 72
131 182 176 245 44 63 134 183 198 265 64 83 145 188 178 235 34 47 85 112
113 145 75 88 104 153 104 234 1 96 -26 164 -88 226 -59 59 -102 81 -183 96
-146 27 -279 -23 -360 -135 -21 -28 -50 -64 -65 -80 -15 -17 -67 -86 -115
-155 -48 -69 -119 -169 -158 -221 -40 -52 -118 -165 -175 -250 -57 -85 -147
-216 -200 -290 -53 -74 -128 -182 -167 -240 -103 -153 -164 -224 -193 -228
-57 -7 -303 141 -398 239 -58 59 -63 75 -46 154 11 49 13 95 8 153 -6 80 -6
84 19 110 14 15 36 50 49 77 19 43 23 67 23 165 0 104 -2 119 -25 160 -18 33
-35 48 -60 56 -19 6 -35 15 -37 20 -1 5 -7 57 -12 115 -9 90 -35 197 -66 272
-6 14 -2 20 14 24 27 7 27 32 1 115 -26 84 -26 95 8 103 16 3 60 24 98 46 88
52 165 91 169 87 6 -6 85 -339 85 -358 0 -9 -9 -25 -19 -34 -46 -42 -45 -59
51 -611 23 -132 43 -255 46 -272 4 -32 5 -33 46 -27 22 4 44 9 48 13 4 3 -9
67 -27 141 -39 153 -47 233 -9 95 58 -211 63 -225 87 -225 34 0 97 20 97 30 0
5 -11 40 -26 77 -23 62 -104 324 -104 337 0 21 20 -1 38 -41 31 -68 122 -334
122 -357 0 -16 5 -17 38 -11 20 4 38 8 40 9 1 2 -27 102 -63 222 -76 251 -145
509 -145 541 0 26 -52 88 -90 108 -19 10 -30 27 -38 57 -82 320 -88 350 -68
362 10 6 46 29 80 50 33 22 108 68 164 103 97 58 102 63 80 73 -28 12 -407 89
-623 125 -88 15 -326 60 -530 100 -203 40 -395 76 -425 79 l-55 6 -160 -101z
m402 -44 c170 -36 318 -65 678 -131 110 -20 203 -39 206 -43 4 -3 10 -24 14
-45 l6 -39 -43 6 c-186 27 -266 41 -353 62 -102 26 -158 34 -255 39 -30 2
-107 13 -170 26 -63 12 -159 23 -212 24 -54 0 -98 3 -98 4 0 2 10 12 22 22 22
18 22 19 5 54 -9 20 -17 41 -17 46 0 16 41 12 217 -25z m1081 -189 c35 -8 66
-16 69 -20 3 -3 -1 -14 -11 -25 -22 -25 -105 -56 -117 -44 -12 12 -24 103 -13
103 5 -1 37 -7 72 -14z m-747 -199 c134 -35 154 -47 175 -104 9 -27 28 -75 42
-108 46 -113 48 -100 -21 -125 -94 -34 -218 -100 -357 -188 l-125 -79 -7 26
c-3 14 -14 71 -24 126 -9 55 -20 110 -25 122 -4 12 -22 75 -40 140 -17 65 -34
126 -37 137 -4 14 -1 17 14 13 10 -3 35 -8 54 -11 l35 -6 -38 15 c-82 31 -156
29 -307 -11 -42 -11 -10 11 50 34 114 45 165 52 345 48 141 -3 187 -8 266 -29z
m248 -484 c26 -53 51 -140 51 -181 l0 -35 -42 48 c-61 69 -155 121 -195 108
-24 -8 -13 -22 46 -62 79 -54 171 -177 171 -230 0 -18 -6 -21 -42 -21 -93 0
-327 -59 -355 -90 -30 -32 -74 -42 -174 -41 -52 0 -120 -4 -150 -8 -38 -7 -57
-6 -65 2 -17 18 -34 121 -34 204 0 85 -15 78 142 62 59 -6 118 -9 131 -5 14 3
80 46 147 96 67 49 126 90 130 90 5 0 23 12 41 27 26 23 143 72 171 73 4 0 16
-17 27 -37z m2112 -1 c33 -17 61 -41 73 -62 27 -46 29 -124 3 -170 -24 -43
-38 -54 -109 -80 -57 -21 -57 -21 -95 -1 -63 32 -182 120 -199 146 -26 40 3
104 69 155 50 38 55 40 128 40 65 0 85 -4 130 -28z m-2992 -61 c36 -6 67 -13
69 -16 3 -2 -64 -2 -149 1 -84 3 -155 7 -158 9 -2 3 10 5 28 5 21 0 30 4 25
11 -7 12 81 8 185 -10z m1465 -23 c7 -41 3 -98 -6 -98 -10 0 -49 71 -55 102
-5 26 -3 28 25 28 27 0 32 -4 36 -32z m25 -168 c0 -10 -3 -8 -9 5 -12 27 -12
43 0 25 5 -8 9 -22 9 -30z m1130 -7 c130 -84 239 -158 283 -191 l48 -36 -21
-22 -21 -22 -36 21 c-21 11 -107 70 -192 131 -85 60 -156 111 -158 112 -7 5
19 44 30 44 6 0 36 -16 67 -37z m0 -160 c270 -192 257 -180 238 -207 -12 -16
-18 -15 -82 19 -39 21 -97 57 -130 81 -121 89 -184 139 -194 156 -13 21 -4 48
16 48 8 0 77 -44 152 -97z m-170 -51 c25 -21 100 -75 166 -120 170 -116 160
-107 147 -137 -12 -25 -36 -33 -47 -15 -3 6 -84 62 -180 125 -96 64 -177 120
-181 126 -5 9 32 59 44 59 2 0 25 -17 51 -38z m-1603 -6 c11 -17 16 -51 17
-107 l2 -83 -33 -22 c-35 -24 -125 -40 -166 -30 -34 8 -78 68 -79 108 -2 29 1
33 26 36 16 2 38 -5 53 -17 31 -25 72 -27 100 -6 18 13 17 14 -18 15 -20 0
-39 4 -42 8 -6 11 101 45 114 37 6 -3 10 5 10 19 0 24 -4 26 -42 26 -63 0
-156 -25 -189 -49 -16 -12 -29 -17 -29 -12 0 18 50 45 134 73 102 34 121 34
142 4z m113 -5 c6 -10 18 -63 26 -117 9 -54 18 -100 20 -102 11 -11 16 79 10
154 l-7 86 28 -4 c36 -4 47 -44 42 -145 -4 -78 -27 -125 -65 -131 -36 -5 -45
-45 -37 -172 6 -104 4 -126 -14 -186 -43 -139 -118 -236 -224 -288 -81 -41
-123 -45 -188 -15 -52 24 -60 33 -60 76 0 38 18 52 98 78 56 18 112 58 99 71
-4 4 -47 0 -96 -9 -64 -12 -96 -14 -115 -7 -49 18 -30 36 62 59 237 59 257 66
228 90 -12 10 -38 9 -133 -9 -65 -12 -146 -30 -181 -41 -77 -24 -82 -24 -82 0
0 25 110 101 146 101 27 0 134 64 134 80 0 16 -25 17 -74 3 -28 -9 -63 -12
-86 -8 -23 4 -41 2 -45 -4 -3 -6 -13 -11 -21 -11 -17 0 -19 46 -4 86 8 19 7
58 0 127 -6 55 -8 103 -3 107 4 4 18 11 31 15 18 5 25 1 40 -26 30 -56 90
-131 119 -150 20 -14 47 -19 94 -19 97 0 159 22 204 72 l38 41 -5 109 c-5 105
0 128 21 89z m1387 -161 c29 -17 54 -34 56 -38 2 -4 19 -15 39 -26 43 -21 109
-74 109 -86 0 -4 -57 -84 -126 -176 -69 -93 -144 -200 -166 -238 -22 -38 -55
-85 -73 -105 -18 -20 -60 -75 -94 -123 -128 -184 -180 -257 -268 -378 -51 -69
-111 -152 -134 -185 -115 -161 -175 -235 -190 -235 -23 0 -50 69 -37 93 6 12
6 23 -2 33 -7 7 -10 25 -8 39 4 21 3 23 -9 13 -8 -6 -28 -31 -44 -55 -17 -24
-37 -43 -45 -43 -17 0 -103 61 -104 74 0 5 24 39 54 75 30 36 117 158 193 271
77 113 166 241 199 285 55 76 224 317 427 612 48 71 99 149 114 176 14 26 33
47 41 47 8 0 38 -14 68 -30z m-2331 -36 c20 -71 40 -101 78 -120 51 -27 111 3
143 72 17 35 69 78 84 69 6 -3 10 -32 10 -64 0 -68 -11 -78 -108 -112 -86 -30
-128 -26 -167 15 -31 33 -65 124 -65 174 0 36 8 25 25 -34z m225 32 c-25 -7
-62 -21 -84 -30 -45 -19 -46 -19 -46 -7 0 15 101 50 140 50 35 -1 35 -1 -10
-13z m0 -50 c0 -2 -7 -7 -16 -10 -8 -3 -12 -2 -9 4 6 10 25 14 25 6z m84 -215
c4 -5 -10 -37 -30 -71 -41 -68 -54 -66 -54 8 0 39 3 44 33 57 39 17 44 18 51
6z m682 -376 c9 -36 -28 -87 -162 -223 -89 -92 -116 -113 -135 -110 -19 2 -25
10 -27 34 -3 29 2 35 54 64 69 40 158 126 209 203 21 31 42 57 46 57 5 0 11
-11 15 -25z m-636 -334 c69 -27 161 -59 205 -72 44 -12 84 -26 89 -30 4 -4 -5
-27 -22 -51 -16 -23 -62 -105 -102 -180 -39 -76 -77 -138 -82 -138 -43 0 -201
273 -233 402 -18 69 -14 118 8 118 6 0 68 -22 137 -49z m-440 -373 c-10 -24
-22 -61 -26 -83 l-7 -40 -12 34 c-7 22 -14 31 -19 23 -4 -7 -12 -10 -17 -6 -5
3 -29 -12 -52 -35 -71 -68 -266 -230 -327 -271 l-35 -24 25 28 c57 65 463 416
480 416 5 0 0 -19 -10 -42z m732 -42 l47 -43 6 -229 c4 -136 11 -238 18 -252
6 -13 29 -36 51 -53 47 -34 38 -39 -11 -6 -74 49 -364 479 -350 520 2 6 18 -8
37 -31 18 -23 38 -42 44 -42 6 0 30 41 53 90 23 50 45 90 50 90 4 -1 29 -20
55 -44z m607 -117 c45 -27 241 -190 241 -200 0 -15 -52 -48 -103 -65 -56 -18
-232 -102 -269 -128 -12 -9 -26 -16 -30 -16 -14 0 -9 55 11 111 10 30 30 106
45 169 36 153 35 150 54 150 9 0 32 -9 51 -21z m-1855 -329 c17 -20 15 -19
-11 4 -18 16 -29 34 -26 40 4 6 8 5 11 -4 3 -8 14 -26 26 -40z m3956 -183 c0
-24 -32 -81 -64 -115 -50 -55 -124 -80 -418 -143 -153 -32 -321 -70 -375 -83
-54 -14 -132 -30 -173 -36 -41 -6 -138 -26 -215 -45 -225 -53 -453 -103 -550
-120 -87 -16 -238 -50 -680 -155 -115 -27 -226 -52 -245 -56 -19 -3 -100 -24
-179 -46 -79 -22 -192 -48 -250 -59 -58 -10 -169 -34 -246 -53 -407 -99 -655
-154 -1025 -228 -202 -40 -369 -45 -433 -14 -45 22 -75 62 -60 77 6 6 62 21
124 34 215 44 381 86 477 121 52 19 144 43 203 54 59 10 136 26 169 35 34 9
135 27 224 40 187 28 393 75 477 110 32 13 111 35 176 50 64 14 120 28 124 31
5 2 18 -14 31 -36 13 -22 31 -42 40 -45 21 -7 285 46 428 85 148 41 388 96
499 115 52 9 103 21 112 26 17 9 39 65 39 101 0 19 7 21 175 44 66 9 161 27
210 39 50 13 140 33 200 45 61 12 144 31 185 42 41 11 128 30 195 43 162 30
309 59 565 111 237 47 260 50 260 31z"/>
<path d="M4853 7963 c9 -2 25 -2 35 0 9 3 1 5 -18 5 -19 0 -27 -2 -17 -5z"/>
<path d="M4848 7933 c6 -2 18 -2 25 0 6 3 1 5 -13 5 -14 0 -19 -2 -12 -5z"/>
<path d="M4905 7741 c-3 -12 -17 -21 -33 -23 -17 -2 -28 -10 -30 -22 -4 -18
-3 -18 28 0 18 11 34 25 37 31 3 7 9 10 14 7 5 -3 6 2 3 10 -8 21 -11 20 -19
-3z"/>
<path d="M4790 7665 c-7 -9 -15 -13 -17 -11 -6 5 -43 -26 -43 -36 0 -4 18 5
40 19 22 15 40 30 40 35 0 12 -6 10 -20 -7z"/>
<path d="M3683 4008 c-38 -12 -43 -39 -17 -76 14 -20 21 -23 58 -17 56 10 68
21 64 64 -3 33 -5 36 -38 38 -19 1 -50 -3 -67 -9z"/>
<path d="M3523 3983 c-17 -3 -23 -11 -23 -29 0 -41 18 -64 49 -64 37 0 69 27
80 68 l10 32 -47 -1 c-26 -1 -57 -4 -69 -6z"/>
<path d="M6615 7874 c-11 -2 -130 -25 -265 -50 -237 -44 -418 -82 -432 -90 -4
-3 4 -21 18 -41 23 -34 64 -149 64 -180 0 -9 6 -12 18 -9 61 18 568 116 600
116 33 0 45 -6 75 -39 19 -21 36 -44 39 -52 6 -17 62 45 118 128 22 33 47 66
55 73 23 19 18 35 -17 66 -70 58 -198 95 -273 78z"/>
<path d="M5455 7800 l-19 -21 44 3 c32 2 45 7 45 18 0 24 -48 24 -70 0z"/>
<path d="M5455 7628 c25 -163 28 -173 59 -176 l29 -4 -7 49 c-4 26 -9 76 -13
111 l-6 62 -34 0 -34 0 6 -42z"/>
<path d="M3749 6923 c-40 -48 -95 -112 -122 -142 -75 -84 -161 -200 -191 -259
l-26 -52 -70 46 c-38 26 -72 55 -75 65 -7 20 18 84 43 113 33 37 92 56 178 56
72 0 83 2 104 24 38 42 21 55 -116 96 -68 20 -145 -14 -242 -108 -60 -58 -77
-107 -69 -200 9 -112 86 -230 182 -277 57 -29 175 -27 231 2 94 50 164 174
149 265 -15 92 -42 126 -74 96 -20 -19 26 49 92 136 124 165 148 217 100 224
-16 2 -38 -17 -94 -85z m-119 -371 c-7 -86 -25 -122 -83 -166 -58 -45 -123
-47 -87 -3 48 57 153 204 161 224 5 13 10 23 11 23 2 0 1 -35 -2 -78z"/>
<path d="M3853 6696 c-70 -14 -78 -18 -70 -41 16 -39 196 4 197 48 0 10 -54 7
-127 -7z"/>
<path d="M2971 6538 c-47 -10 -87 -21 -90 -24 -3 -3 2 -35 12 -72 9 -37 24
-100 33 -140 9 -42 22 -76 30 -79 33 -12 264 37 264 56 0 5 -9 20 -20 34 l-20
25 -48 -24 c-27 -14 -65 -24 -89 -24 -40 0 -42 2 -56 43 -51 143 -51 143 23
150 80 9 130 30 130 56 0 18 -6 21 -42 20 -24 -1 -81 -10 -127 -21z"/>
<path d="M3130 6440 c-9 -16 -8 -18 5 -14 8 4 15 12 15 20 0 20 -7 17 -20 -6z"/>
<path d="M3079 6383 c-13 -16 -12 -17 4 -4 9 7 17 15 17 17 0 8 -8 3 -21 -13z"/>
<path d="M4039 6215 c-70 -13 -200 -41 -290 -64 -90 -22 -190 -45 -222 -51
-57 -11 -58 -13 -52 -38 4 -15 7 -28 8 -28 3 -3 302 62 462 100 83 19 166 38
186 41 50 9 62 19 54 44 -3 11 -9 21 -13 20 -4 0 -64 -11 -133 -24z"/>
<path d="M3280 6144 c-25 -8 -99 -26 -165 -41 -66 -14 -121 -27 -123 -28 -2
-2 3 -27 11 -56 8 -30 25 -102 38 -161 13 -60 27 -108 31 -108 4 0 75 16 157
35 82 19 159 35 171 35 18 0 21 4 16 23 -13 43 -46 210 -52 263 -7 60 -10 61
-84 38z m-18 -136 c-47 -86 -67 -118 -72 -118 -3 0 -15 16 -28 35 -21 33 -42
46 -42 26 0 -11 77 -81 88 -81 15 0 44 38 67 87 l22 48 18 -58 c12 -35 15 -60
9 -65 -15 -14 -171 -53 -187 -46 -8 3 -20 24 -26 47 -21 81 -30 132 -23 138 7
6 143 45 177 51 30 5 30 -7 -3 -64z"/>
<path d="M4005 6064 c-175 -38 -427 -92 -463 -99 -30 -6 -33 -10 -27 -33 4
-15 8 -29 10 -30 2 -2 87 17 188 42 102 25 240 55 308 66 172 29 202 38 195
56 -3 9 -6 18 -6 20 0 11 -106 0 -205 -22z"/>
<path d="M4020 5775 c-52 -13 -175 -41 -273 -62 l-178 -37 6 -26 c4 -14 8 -26
10 -28 2 -2 45 8 97 22 51 13 131 32 178 41 128 23 230 53 278 81 23 14 42 27
42 29 0 11 -72 2 -160 -20z"/>
<path d="M3345 5699 c-51 -16 -117 -31 -231 -54 -20 -4 -20 -7 18 -162 22 -86
40 -158 42 -160 3 -4 329 68 336 74 2 2 -14 76 -35 163 -30 120 -44 160 -55
159 -8 0 -42 -9 -75 -20z m15 -131 c-17 -35 -35 -67 -40 -72 -5 -5 -27 7 -51
28 -23 20 -49 36 -57 36 -9 0 -13 -2 -11 -4 38 -34 121 -96 127 -96 5 0 20 25
34 55 l25 56 18 -27 c9 -15 20 -43 22 -64 l5 -37 -58 -12 c-33 -7 -81 -11
-109 -9 l-50 3 -17 60 c-28 101 -28 101 55 120 39 9 86 22 102 29 17 7 31 9
33 5 2 -4 -11 -36 -28 -71z"/>
<path d="M3717 5572 l-119 -27 6 -29 c4 -16 7 -30 9 -32 1 -1 56 12 122 28
110 28 165 54 165 80 0 14 -60 7 -183 -20z"/>
<path d="M7933 4650 c-29 -12 -362 -85 -1023 -225 -96 -21 -229 -50 -295 -66
-66 -15 -201 -44 -300 -64 -99 -20 -272 -58 -385 -85 -113 -27 -270 -63 -350
-80 -197 -43 -558 -124 -710 -160 -69 -17 -213 -50 -320 -74 -107 -24 -283
-64 -390 -89 -107 -25 -211 -48 -230 -52 -19 -4 -102 -22 -185 -40 -82 -19
-265 -59 -405 -90 -278 -61 -686 -159 -738 -178 -17 -6 -32 -14 -32 -17 0 -3
15 -69 34 -146 19 -76 41 -176 50 -222 16 -83 54 -241 62 -253 3 -6 39 1 155
27 23 5 27 2 31 -23 14 -78 172 -839 203 -978 20 -88 45 -179 55 -202 41 -94
163 -189 281 -219 122 -31 196 -19 874 142 149 35 296 74 327 85 51 19 63 20
109 9 29 -7 174 -75 323 -150 311 -158 421 -205 596 -255 130 -38 224 -67 250
-78 16 -7 115 70 268 210 120 109 452 523 527 658 55 98 67 106 202 137 163
38 368 85 493 113 295 66 537 128 574 147 98 49 156 121 196 238 27 79 25 158
-4 260 -14 47 -34 130 -46 185 -12 55 -32 136 -45 180 -13 44 -54 202 -90 350
-37 149 -74 283 -82 299 -19 37 -17 38 113 67 57 12 104 26 104 30 0 7 -131
541 -146 597 -7 24 -16 26 -51 12z m-59 -288 c10 -53 24 -115 32 -137 7 -21
11 -41 9 -43 -8 -8 -241 -53 -286 -55 -35 -1 -45 -6 -42 -17 2 -8 26 -105 54
-215 27 -110 63 -259 79 -332 31 -142 47 -176 91 -199 16 -8 29 -18 29 -23 0
-4 -42 -16 -92 -26 -51 -10 -140 -28 -197 -41 -58 -13 -107 -22 -109 -19 -3 3
3 22 13 44 17 39 17 40 -15 163 -26 98 -105 436 -137 581 -5 23 -7 25 -17 13
-7 -9 -57 -23 -132 -35 -66 -11 -133 -25 -148 -31 -35 -13 -46 -6 -46 28 0 15
-11 74 -24 132 -13 58 -22 107 -21 109 2 2 100 23 217 46 409 83 603 125 648
139 76 24 73 26 94 -82z m-1190 -206 c79 -22 112 -39 107 -57 -2 -8 -12 -61
-22 -119 -10 -58 -19 -106 -19 -107 0 -1 -12 5 -28 12 -15 8 -77 20 -139 26
-145 17 -225 4 -265 -41 -33 -36 -35 -60 -7 -86 18 -16 45 -20 201 -26 99 -4
205 -12 237 -18 166 -30 255 -132 255 -290 0 -93 -28 -160 -99 -238 -84 -93
-173 -139 -322 -169 -70 -14 -96 -14 -165 -5 -105 15 -308 72 -308 87 0 6 14
31 32 55 18 23 46 78 63 121 30 73 33 76 47 59 9 -10 42 -28 74 -41 80 -31
250 -34 304 -5 87 46 113 100 63 133 -22 15 -61 19 -222 25 -122 5 -215 14
-248 23 -68 20 -149 94 -194 177 -29 55 -34 72 -34 133 0 174 142 311 375 360
80 18 233 13 314 -9z m-1026 -240 c52 -13 99 -29 105 -35 8 -8 4 -25 -15 -64
-14 -29 -31 -78 -37 -109 l-12 -56 -32 16 c-41 20 -274 23 -329 4 -42 -15 -88
-64 -88 -93 0 -39 41 -51 207 -60 275 -15 335 -31 414 -106 69 -66 93 -123 93
-228 0 -59 -4 -79 -31 -130 -34 -67 -127 -161 -189 -193 -100 -51 -173 -67
-299 -66 -102 2 -136 7 -228 33 -59 17 -111 31 -116 31 -6 0 -22 5 -36 10
l-27 10 39 43 c33 35 73 115 97 190 5 17 8 16 35 -4 36 -26 197 -69 260 -69
137 0 254 105 175 156 -19 13 -70 21 -196 30 -252 20 -316 41 -408 135 -63 65
-83 117 -78 202 5 88 32 148 98 220 65 71 139 113 251 142 114 31 205 28 347
-9z m-938 -178 c1 -13 11 -75 24 -138 13 -63 23 -116 22 -116 0 -1 -66 -13
-146 -28 -80 -15 -189 -38 -242 -52 -53 -13 -110 -24 -127 -24 -35 0 -36 -3
-20 -83 10 -48 15 -57 33 -57 39 0 280 50 343 71 35 11 67 18 72 15 11 -7 74
-232 69 -248 -4 -12 -114 -40 -316 -78 -140 -27 -129 -13 -96 -127 11 -39 19
-53 33 -53 22 0 403 76 450 90 19 5 42 17 52 26 26 24 35 12 49 -63 7 -38 21
-92 32 -122 10 -30 15 -58 11 -62 -10 -9 -370 -96 -577 -138 -81 -17 -186 -42
-232 -55 -78 -22 -84 -22 -84 -6 0 10 7 23 15 30 23 19 18 66 -24 248 -82 352
-111 481 -136 595 -21 96 -31 126 -57 158 -17 21 -29 40 -27 42 2 2 36 9 74
16 39 8 120 26 180 41 61 16 148 36 195 45 47 9 146 32 220 50 217 54 210 53
210 23z m-1006 -266 c4 -32 15 -94 25 -137 11 -44 16 -82 11 -85 -4 -3 -72
-18 -149 -34 -100 -20 -141 -33 -141 -42 0 -19 45 -219 74 -329 101 -385 95
-367 139 -407 29 -26 37 -38 27 -42 -8 -2 -89 -21 -180 -41 -91 -21 -180 -44
-199 -51 -18 -8 -37 -14 -42 -14 -11 0 0 29 23 59 26 34 23 56 -26 267 -24
104 -52 227 -61 274 -24 123 -56 230 -70 230 -6 0 -38 -9 -71 -21 -32 -11 -88
-27 -124 -35 -36 -8 -76 -17 -90 -20 -25 -5 -25 -4 -44 98 -10 57 -25 118 -32
137 -8 19 -11 38 -7 42 8 7 132 35 388 89 72 15 189 41 260 59 121 29 245 57
271 60 7 0 14 -23 18 -57z m4232 -324 c-3 -19 -2 -27 2 -20 5 8 15 -16 25 -65
22 -100 22 -102 -8 -99 -13 2 -22 -1 -19 -5 3 -5 -9 -9 -25 -9 -21 0 -31 -5
-31 -15 0 -8 5 -15 10 -15 6 0 10 -4 10 -10 0 -5 -7 -10 -15 -10 -8 0 -15 4
-15 9 0 5 -9 7 -20 4 -11 -3 -20 -10 -20 -17 0 -7 -22 -11 -60 -11 l-60 -1 0
58 c0 47 -3 58 -16 58 -9 0 -26 10 -37 23 -13 15 -21 18 -24 10 -3 -7 -13 -13
-24 -13 -14 0 -19 -7 -19 -30 0 -28 2 -30 40 -30 39 0 40 -1 40 -35 0 -27 -4
-35 -17 -35 -10 0 -28 -3 -40 -6 -21 -6 -23 -3 -23 35 l0 41 -40 0 c-33 0 -40
-3 -40 -20 0 -13 -7 -20 -20 -20 -13 0 -20 -7 -20 -20 0 -11 5 -20 10 -20 6 0
10 -7 10 -15 0 -11 11 -15 38 -16 28 0 32 -2 17 -8 -11 -4 -48 -7 -82 -6 -38
2 -61 -1 -60 -7 1 -6 -4 -13 -11 -15 -8 -3 -10 1 -6 11 3 9 1 16 -5 16 -6 0
-11 -9 -11 -21 0 -11 -4 -18 -10 -14 -5 3 -17 1 -27 -4 -36 -19 -129 -43 -175
-45 -25 0 -41 -4 -35 -8 7 -4 -2 -8 -20 -8 -17 0 -35 -4 -38 -10 -3 -5 -1 -10
5 -10 25 0 495 102 598 130 63 18 120 29 129 26 10 -4 13 -17 11 -43 -3 -35
-6 -38 -43 -46 -65 -13 -236 -53 -459 -107 -115 -28 -215 -49 -222 -46 -8 3
-14 15 -14 26 0 11 -6 20 -14 20 -8 0 -17 6 -20 13 -3 6 -3 -1 1 -16 4 -23 2
-29 -16 -34 -17 -4 -21 -13 -21 -44 0 -35 -3 -39 -25 -39 -18 0 -25 5 -25 20
0 16 -7 20 -30 20 -20 0 -30 5 -30 15 0 8 -4 15 -10 15 -5 0 -10 -7 -10 -15 0
-8 -4 -15 -10 -15 -5 0 -10 16 -10 35 0 34 -14 48 -22 23 -3 -9 -9 -8 -21 4
-10 9 -26 19 -36 23 -13 4 -21 19 -25 50 -10 62 -22 64 -17 3 4 -60 -1 -64
-81 -73 -41 -5 -58 -11 -58 -22 0 -11 13 -14 58 -13 87 2 84 4 80 -37 -3 -38
-3 -38 -61 -47 -71 -11 -72 -33 -1 -26 27 2 69 4 94 5 l45 0 0 -40 c0 -32 -3
-39 -17 -37 -12 2 -16 -2 -12 -13 3 -8 10 -15 15 -15 5 0 9 -5 9 -11 0 -5 -4
-8 -9 -5 -4 3 -6 -6 -3 -19 5 -27 9 -28 127 -27 l60 1 -60 -20 c-33 -11 -79
-21 -101 -22 -23 -1 -40 -5 -38 -8 4 -8 -38 -20 -45 -14 -2 3 1 5 7 5 20 0 14
18 -8 25 -11 3 -20 13 -20 21 0 8 -9 14 -20 14 -13 0 -20 7 -20 19 0 11 -5 21
-12 23 -6 2 15 10 48 18 32 7 53 15 47 17 -7 3 -50 -5 -95 -18 -46 -12 -96
-22 -112 -23 -16 0 -31 -7 -34 -15 -3 -10 0 -12 12 -8 10 4 15 3 11 -3 -3 -6
-19 -10 -36 -10 -31 0 -32 -5 -33 -108 0 -18 -8 -24 -41 -32 -22 -6 -65 -17
-95 -25 -46 -12 -156 -36 -235 -51 -11 -2 -78 -18 -148 -35 -71 -17 -136 -32
-145 -34 -10 -2 -42 -11 -72 -19 -30 -9 -120 -29 -200 -46 -80 -16 -156 -34
-170 -39 -79 -29 -199 -53 -216 -43 -15 8 -9 13 36 26 29 9 55 14 58 11 2 -2
16 2 31 9 14 7 40 13 58 11 18 -1 30 2 27 7 -3 4 9 8 25 8 21 0 31 5 31 15 0
8 -4 15 -9 15 -5 0 -11 13 -13 29 -2 17 -2 30 1 29 34 -3 42 17 11 27 -13 4
-20 15 -20 32 0 31 35 202 54 268 19 62 14 70 -8 13 -36 -92 -40 -98 -64 -98
-13 0 -21 -3 -18 -8 2 -4 -13 -6 -35 -4 -34 4 -39 2 -39 -17 0 -12 -4 -21 -10
-21 -5 0 -10 -9 -10 -20 0 -15 -7 -20 -25 -20 -20 0 -25 6 -31 35 -5 29 -11
35 -27 33 -16 -3 -20 4 -24 37 -6 56 -13 57 -13 2 0 -40 -3 -47 -19 -47 -43 0
-121 -24 -121 -37 0 -11 9 -12 38 -6 20 4 51 7 67 8 28 0 30 -3 33 -41 l3 -42
-57 -8 c-58 -9 -88 -34 -41 -34 43 0 132 20 135 31 7 20 42 -35 42 -66 l0 -32
-136 -27 c-76 -14 -138 -25 -139 -24 -2 2 -15 61 -30 133 -28 138 -39 168 -33
95 l3 -45 -57 -3 c-51 -3 -61 0 -83 22 -16 16 -25 36 -25 55 0 16 -5 33 -12
37 -7 5 -8 3 -3 -6 6 -10 4 -11 -6 -4 -27 17 -55 14 -78 -8 -17 -15 -37 -22
-67 -22 -24 -1 -46 -6 -48 -13 -6 -14 19 -11 115 13 90 22 87 24 101 -61 2
-17 -3 -21 -37 -23 -22 -2 -43 -6 -47 -10 -3 -4 0 -36 8 -72 17 -81 18 -142 2
-158 -9 -9 -7 -12 12 -12 20 0 22 -2 10 -10 -12 -8 -11 -10 7 -10 12 0 25 5
28 10 3 6 44 10 91 10 49 0 84 -4 84 -10 0 -6 26 -10 59 -10 52 0 59 -3 64
-21 4 -17 3 -19 -6 -10 -16 16 -40 14 -34 -3 5 -11 -6 -16 -41 -21 -48 -7
-139 -27 -317 -70 -55 -14 -138 -32 -185 -41 -47 -8 -134 -28 -195 -43 -362
-93 -681 -161 -610 -131 17 8 16 9 -10 11 -16 1 -39 2 -50 1 -11 0 -14 2 -7 4
6 3 12 15 12 27 0 12 21 43 46 70 l45 47 95 0 c56 0 94 4 94 10 0 6 23 10 50
10 43 0 50 3 50 20 0 13 7 20 19 20 11 0 22 6 25 13 5 10 7 10 12 0 10 -21 44
-16 44 7 0 17 7 20 40 20 22 0 40 5 40 10 0 6 9 10 20 10 14 0 20 7 20 23 0
13 9 32 20 42 11 10 20 13 20 7 0 -9 43 -12 150 -12 93 0 150 4 150 10 0 6 9
10 19 10 11 0 22 6 24 13 4 9 8 8 17 -3 10 -13 11 -13 6 2 -3 10 -13 60 -23
110 -9 51 -18 94 -19 96 -1 2 -24 -6 -52 -16 -36 -14 -54 -16 -61 -9 -8 8 -11
6 -11 -6 0 -10 -8 -17 -20 -17 -11 0 -20 -7 -20 -15 0 -8 -9 -15 -20 -15 -11
0 -20 -7 -20 -15 0 -8 -9 -15 -20 -15 -16 0 -20 7 -20 35 l0 35 -59 0 c-57 0
-60 -1 -63 -27 -2 -14 -9 -29 -17 -31 -8 -3 -11 0 -7 7 4 6 0 11 -9 11 -11 0
-15 -5 -12 -15 8 -18 -1 -23 -49 -31 -22 -3 -43 -9 -49 -12 -10 -6 -98 -22
-127 -23 -9 0 -21 -6 -27 -13 -11 -13 143 16 251 47 31 10 58 17 61 17 6 0 27
-93 22 -98 -1 -2 -29 -6 -61 -9 -33 -3 -77 -11 -99 -18 -23 -7 -70 -19 -105
-25 -55 -10 -360 -81 -411 -96 -13 -3 -18 5 -24 38 -4 24 -10 36 -12 28 -2 -9
-14 -20 -26 -25 -20 -9 -22 -15 -18 -87 3 -74 2 -78 -18 -78 -18 0 -21 6 -21
40 0 33 -3 40 -20 40 -13 0 -20 7 -20 20 0 11 -4 20 -10 20 -5 0 -10 6 -10 14
0 8 -9 18 -20 21 -11 3 -20 15 -20 26 0 11 -7 19 -16 19 -12 0 -15 -7 -12 -25
3 -14 2 -25 -1 -25 -3 0 -21 59 -39 132 -23 93 -29 133 -21 138 6 4 56 15 112
25 56 9 163 32 237 51 228 56 390 94 515 120 66 14 134 29 150 34 17 5 104 25
195 44 338 72 640 141 825 191 50 13 128 31 175 40 47 8 117 24 155 35 39 10
129 31 200 45 72 15 155 34 185 41 30 8 118 28 195 44 77 16 152 33 167 39 16
6 85 22 155 36 71 14 160 34 198 44 39 11 108 27 155 36 47 9 137 29 200 45
190 47 360 81 370 75 6 -3 10 -1 10 4 0 6 7 11 16 11 9 0 12 -5 8 -12 -4 -7
-3 -8 5 -4 6 4 9 11 7 15 -3 4 52 18 122 31 70 13 181 38 247 56 66 18 124 33
129 33 5 1 6 -14 2 -31z m-361 -278 c3 -5 2 -10 -4 -10 -5 0 -13 5 -16 10 -3
6 -2 10 4 10 5 0 13 -4 16 -10z m80 0 c-3 -5 -21 -9 -38 -9 l-32 1 30 8 c43
11 47 11 40 0z m245 -279 c0 -17 -19 -22 -37 -11 -17 11 -17 11 0 6 9 -3 17
-1 17 4 0 6 5 10 10 10 6 0 10 -4 10 -9z m-140 -45 c0 -2 -13 -6 -29 -8 -17
-2 -28 -1 -25 4 5 8 54 12 54 4z m-205 -46 c-3 -5 -12 -10 -18 -10 -7 0 -6 4
3 10 19 12 23 12 15 0z m-78 -26 c-3 -3 -12 -4 -19 -1 -8 3 -5 6 6 6 11 1 17
-2 13 -5z m-450 -68 c-5 -12 4 -14 46 -11 39 3 48 1 34 -6 -10 -6 -25 -8 -33
-5 -9 3 -22 -1 -30 -9 -20 -20 -27 -19 -49 5 -16 18 -16 20 -2 20 10 0 17 5
17 10 0 6 5 10 11 10 6 0 9 -6 6 -14z m190 8 c-3 -3 -12 -4 -19 -1 -8 3 -5 6
6 6 11 1 17 -2 13 -5z m-3019 -400 c-3 -14 -5 -12 -10 9 -3 19 -2 25 4 19 6
-6 8 -18 6 -28z m32 2 c0 -3 -4 -8 -10 -11 -5 -3 -10 -1 -10 4 0 6 5 11 10 11
6 0 10 -2 10 -4z m980 -6 c0 -5 -2 -10 -4 -10 -3 0 -8 5 -11 10 -3 6 -1 10 4
10 6 0 11 -4 11 -10z m-140 -30 c0 -13 7 -20 20 -20 11 0 20 -7 20 -15 0 -9
-9 -15 -24 -15 -14 0 -28 -4 -31 -10 -4 -6 11 -8 37 -5 39 4 40 4 13 -5 -16
-6 -41 -8 -55 -5 -23 5 -25 9 -22 50 3 36 8 45 23 45 12 0 19 -7 19 -20z m180
10 c0 -5 -17 -10 -37 -9 -31 0 -34 2 -18 9 28 12 55 12 55 0z m-1035 -10 c3
-5 -1 -10 -10 -10 -9 0 -13 5 -10 10 3 6 8 10 10 10 2 0 7 -4 10 -10z m1931
-97 c-4 -16 -9 -45 -12 -65 -4 -21 -13 -43 -20 -49 -8 -6 -14 -23 -14 -36 0
-23 3 -25 28 -19 77 19 82 19 82 -3 0 -31 -50 -53 -113 -49 l-52 3 -12 50 c-7
28 -16 71 -19 96 l-6 46 63 26 c81 33 83 33 75 0z m-2089 11 c-3 -3 -12 -4
-19 -1 -8 3 -5 6 6 6 11 1 17 -2 13 -5z m980 0 c-3 -3 -12 -4 -19 -1 -8 3 -5
6 6 6 11 1 17 -2 13 -5z m892 -121 c7 -38 15 -88 18 -112 5 -43 5 -44 -22 -37
-15 4 -52 22 -81 41 -30 19 -54 31 -54 27 1 -4 5 -26 9 -50 9 -44 3 -56 -22
-46 -15 6 -31 59 -43 147 -8 57 0 59 65 19 81 -49 83 -49 75 9 -5 38 -3 53 7
60 28 17 35 8 48 -58z m-2229 43 c0 -9 -40 -13 -46 -5 -3 5 6 9 20 9 14 0 26
-2 26 -4z m-175 -46 c-32 -7 -48 -3 -41 9 3 4 20 5 38 2 l33 -5 -30 -6z m65
-11 c0 -5 -9 -9 -20 -9 -13 0 -18 5 -14 14 6 15 34 11 34 -5z m2062 -65 c10
-43 20 -89 23 -100 3 -14 -1 -24 -10 -28 -18 -6 -32 25 -60 128 -15 57 -16 69
-4 77 25 15 32 4 51 -77z m-241 -35 l16 -64 72 4 c42 2 71 -1 71 -7 0 -20 -70
-43 -122 -40 l-53 3 -12 70 c-15 92 -16 108 0 103 6 -3 19 -33 28 -69z m-2088
12 c-4 -15 14 -14 21 2 4 6 4 2 2 -11 -3 -15 2 -26 16 -33 11 -6 17 -13 14
-17 -7 -7 -54 35 -68 62 -8 14 -7 17 4 13 7 -2 12 -10 11 -16z"/>
<path d="M7718 3103 c7 -3 16 -2 19 1 4 3 -2 6 -13 5 -11 0 -14 -3 -6 -6z"/>
<path d="M7928 3092 c-3 -11 0 -19 8 -19 16 0 19 23 5 31 -5 3 -11 -2 -13 -12z"/>
<path d="M7770 3055 c0 -8 7 -15 15 -15 8 0 15 7 15 15 0 8 -7 15 -15 15 -8 0
-15 -7 -15 -15z"/>
<path d="M7966 2995 c4 -8 8 -15 10 -15 2 0 4 7 4 15 0 8 -4 15 -10 15 -5 0
-7 -7 -4 -15z"/>
<path d="M7760 2920 c0 -5 9 -10 20 -10 11 0 20 5 20 10 0 6 -9 10 -20 10 -11
0 -20 -4 -20 -10z"/>
<path d="M6680 2776 c0 -9 7 -12 20 -9 11 3 17 9 14 14 -8 14 -34 10 -34 -5z"/>
<path d="M6585 2750 c-3 -5 -18 -10 -32 -10 -15 0 -24 -3 -20 -6 9 -9 88 7 81
17 -7 12 -21 11 -29 -1z"/>
<path d="M6638 2753 c7 -3 16 -2 19 1 4 3 -2 6 -13 5 -11 0 -14 -3 -6 -6z"/>
<path d="M6020 2615 c-7 -8 -8 -15 -3 -15 5 0 37 -25 70 -55 58 -52 61 -53 58
-27 -3 39 -31 99 -50 106 -28 11 -62 7 -75 -9z"/>
<path d="M6492 2595 c0 -16 2 -22 5 -12 2 9 2 23 0 30 -3 6 -5 -1 -5 -18z"/>
<path d="M6512 2505 c0 -16 2 -22 5 -12 2 9 2 23 0 30 -3 6 -5 -1 -5 -18z"/>
<path d="M6175 2491 c5 -25 4 -32 -5 -26 -8 5 -11 3 -8 -6 3 -8 13 -16 23 -18
15 -3 17 2 11 30 -3 18 -11 38 -17 44 -8 7 -9 0 -4 -24z"/>
<path d="M6074 2415 c3 -11 10 -42 15 -70 11 -58 5 -65 -51 -65 -21 0 -38 -4
-38 -9 0 -13 36 -20 51 -10 8 5 26 9 42 9 17 0 27 5 27 15 0 13 4 14 20 5 12
-6 20 -7 20 -1 0 5 12 14 28 19 18 7 21 11 9 11 -10 1 -43 27 -74 59 -32 33
-53 49 -49 37z"/>
<path d="M5070 2400 c-13 -9 -13 -10 0 -9 8 0 24 4 35 9 l20 9 -20 0 c-11 0
-27 -4 -35 -9z"/>
<path d="M5010 2384 c-14 -8 -18 -13 -10 -13 24 1 55 15 44 21 -5 2 -20 -1
-34 -8z"/>
<path d="M4860 2345 c-7 -9 -10 -18 -6 -22 3 -3 6 -1 6 5 0 6 8 12 18 14 11 2
13 6 6 11 -7 4 -17 0 -24 -8z"/>
<path d="M5520 2316 c0 -19 4 -23 20 -19 23 6 25 14 8 31 -18 18 -28 14 -28
-12z"/>
<path d="M6230 2330 c-9 -6 -10 -10 -3 -10 6 0 15 5 18 10 8 12 4 12 -15 0z"/>
<path d="M4453 2243 c9 -2 23 -2 30 0 6 3 -1 5 -18 5 -16 0 -22 -2 -12 -5z"/>
<path d="M5530 2199 c-30 -12 -43 -31 -27 -41 9 -5 9 -10 -1 -20 -17 -17 -15
-33 3 -18 13 11 15 8 15 -14 0 -24 4 -26 39 -26 22 0 41 -4 43 -9 5 -15 53
-18 51 -3 -2 7 7 12 22 12 18 0 25 5 25 20 0 13 7 20 20 20 32 0 24 30 -11 37
-21 4 -26 8 -18 14 7 4 19 3 26 -3 8 -6 16 -8 20 -4 3 3 1 6 -5 6 -7 0 -12 7
-12 15 0 18 -5 19 -64 1 -45 -14 -47 -13 -41 5 5 16 1 19 -27 18 -18 0 -44 -5
-58 -10z"/>
<path d="M6000 2150 c0 -5 5 -10 11 -10 5 0 7 5 4 10 -3 6 -8 10 -11 10 -2 0
-4 -4 -4 -10z"/>
<path d="M3751 1961 c-8 -5 -43 -15 -78 -21 -35 -7 -62 -15 -59 -17 8 -8 156
28 156 38 0 11 -1 11 -19 0z"/>
<path d="M3788 1963 c6 -2 18 -2 25 0 6 3 1 5 -13 5 -14 0 -19 -2 -12 -5z"/>
<path d="M3568 1913 c6 -2 18 -2 25 0 6 3 1 5 -13 5 -14 0 -19 -2 -12 -5z"/>
<path d="M4180 1910 c0 -5 5 -10 10 -10 6 0 10 5 10 10 0 6 -4 10 -10 10 -5 0
-10 -4 -10 -10z"/>
<path d="M6100 1815 c0 -8 4 -15 9 -15 5 0 11 7 15 15 3 9 0 15 -9 15 -8 0
-15 -7 -15 -15z"/>
<path d="M8460 10233 c0 -10 38 -73 44 -73 2 0 -1 18 -6 40 -6 22 -16 40 -24
40 -8 0 -14 -3 -14 -7z"/>
<path d="M9580 10151 c-5 -11 -10 -31 -10 -44 0 -27 39 -136 72 -200 11 -23
31 -73 45 -112 33 -99 80 -173 118 -185 42 -14 115 0 270 53 172 59 165 56
165 84 0 28 17 31 -170 -28 -162 -51 -196 -56 -253 -34 -46 17 -57 31 -81 100
-7 22 -41 100 -76 173 -40 85 -63 147 -64 172 0 22 -2 40 -3 40 -1 0 -7 -9
-13 -19z"/>
<path d="M9470 10018 c0 -12 105 -279 128 -324 34 -68 37 -100 10 -127 -22
-22 -219 -91 -423 -148 -44 -12 -115 -33 -159 -46 -95 -28 -166 -30 -189 -5
-9 9 -37 71 -62 137 -25 66 -64 165 -86 221 -46 115 -53 173 -25 203 26 29 5
26 -22 -2 -31 -33 -29 -97 7 -194 131 -358 151 -400 200 -420 24 -10 54 -14
91 -10 118 12 649 175 685 211 34 34 40 100 14 150 -12 22 -47 100 -79 171
-58 133 -89 196 -90 183z"/>
<path d="M10105 9560 c-108 -38 -137 -52 -169 -85 -36 -37 -38 -42 -34 -91 3
-33 22 -88 55 -160 68 -145 123 -270 123 -278 0 -18 116 -295 135 -324 l23
-34 0 73 c-1 53 -6 82 -19 104 -23 37 -25 26 -3 -16 8 -17 14 -40 12 -51 -2
-13 -20 22 -45 89 -24 60 -43 113 -43 117 0 5 -22 58 -49 120 -128 293 -161
376 -161 400 0 50 44 81 170 120 63 20 122 40 130 45 35 23 -4 14 -125 -29z"/>
<path d="M9640 9379 c-41 -11 -142 -41 -225 -69 -82 -27 -199 -63 -260 -80
-154 -43 -162 -47 -198 -99 -49 -71 -45 -86 81 -391 22 -52 70 -168 106 -258
36 -90 71 -172 76 -183 15 -27 83 -59 127 -59 21 0 117 24 213 54 96 30 222
66 280 81 252 65 300 89 300 150 0 41 -42 170 -89 275 -21 47 -62 139 -91 205
-120 276 -146 330 -178 362 -37 38 -41 38 -142 12z m128 -15 c21 -15 77 -122
123 -237 11 -27 32 -76 48 -110 16 -34 34 -80 41 -102 7 -22 21 -56 30 -75 33
-66 100 -254 100 -279 -1 -48 -33 -71 -132 -98 -51 -14 -158 -42 -238 -63 -80
-21 -192 -55 -250 -75 -129 -46 -168 -51 -207 -32 -34 18 -37 24 -102 187 -27
69 -86 215 -131 325 -124 305 -120 343 37 390 48 15 156 47 238 72 406 125
404 124 443 97z"/>
<path d="M1690 9170 c-13 -8 -12 -10 3 -10 9 0 17 5 17 10 0 12 -1 12 -20 0z"/>
<path d="M10210 8353 c-49 -8 -348 -93 -500 -141 -85 -27 -188 -58 -229 -68
-82 -21 -117 -53 -127 -116 -7 -40 3 -68 149 -433 57 -143 121 -304 142 -358
62 -161 102 -170 360 -83 214 71 235 82 235 118 0 27 -2 28 -22 17 -13 -7
-104 -37 -203 -66 -110 -33 -187 -62 -198 -74 -22 -23 -28 -24 -53 -3 -10 8
-13 12 -5 8 9 -5 12 -3 7 5 -4 6 -12 9 -17 5 -15 -9 -44 21 -62 64 -9 20 -44
109 -78 197 -34 88 -97 247 -140 353 -92 227 -97 247 -74 296 15 32 25 38 84
56 36 10 157 46 267 80 251 74 426 120 465 120 19 0 29 5 29 15 0 8 -1 14 -2
14 -2 -1 -14 -4 -28 -6z"/>
<path d="M10044 7543 c4 -16 10 -40 13 -55 3 -16 10 -28 15 -28 6 0 8 11 4 28
-4 15 -10 39 -13 55 -3 15 -10 27 -15 27 -6 0 -8 -11 -4 -27z"/>
<path d="M9985 7543 c-11 -2 -30 -6 -42 -9 -14 -2 -23 -12 -23 -22 1 -16 1
-16 14 1 19 25 33 21 52 -15 16 -31 16 -32 -6 -50 -26 -21 -4 -26 24 -5 17 12
17 16 3 50 -15 34 -14 37 1 47 18 10 12 11 -23 3z"/>
<path d="M9870 7497 c0 -2 14 -16 32 -33 l31 -29 -22 33 c-18 26 -41 42 -41
29z"/>
<path d="M9940 7481 c0 -6 4 -13 10 -16 6 -3 7 1 4 9 -7 18 -14 21 -14 7z"/>
<path d="M9770 7474 c0 -7 10 -30 23 -51 l22 -40 40 19 c36 18 28 18 -24 2
-14 -4 -20 0 -24 18 -7 27 -36 68 -37 52z"/>
<path d="M9850 7466 c0 -8 4 -17 9 -20 5 -4 7 3 4 14 -6 23 -13 26 -13 6z"/>
<path d="M10190 7080 c-19 -11 -30 -19 -25 -19 6 0 26 8 45 19 19 11 31 19 25
19 -5 0 -26 -8 -45 -19z"/>
<path d="M9996 7014 c-43 -14 -76 -27 -73 -30 5 -5 167 44 167 51 0 7 -9 5
-94 -21z"/>
<path d="M9852 6954 c-31 -21 -52 -66 -52 -110 0 -34 29 -112 255 -684 29 -74
68 -177 85 -228 18 -51 48 -114 66 -140 l34 -47 0 44 c0 24 -3 41 -7 38 -12
-12 -33 31 -74 149 -38 112 -75 206 -229 589 -74 184 -100 264 -100 305 0 14
14 42 31 63 32 39 29 48 -9 21z"/>
<path d="M10224 6416 c-3 -8 -2 -22 3 -31 8 -13 10 -10 10 14 0 34 -5 39 -13
17z"/>
<path d="M10140 6408 c0 -15 16 -16 40 -3 l25 14 -32 -2 c-18 -1 -33 -5 -33
-9z"/>
<path d="M10170 6337 c-1 -21 31 -77 49 -87 18 -9 21 -8 21 11 0 12 -3 20 -6
16 -7 -7 -36 20 -52 48 -6 11 -12 16 -12 12z"/>
</g>
</svg>
