<svg xmlns="http://www.w3.org/2000/svg" xmlns:xlink="http://www.w3.org/1999/xlink" width="500" zoomAndPan="magnify" viewBox="0 0 375 374.999991" height="500" preserveAspectRatio="xMidYMid meet" version="1.0"><defs><g/><clipPath id="64e6af0efc"><path d="M 148.742188 133.195312 L 233.390625 133.195312 L 233.390625 219.847656 L 148.742188 219.847656 Z M 148.742188 133.195312 " clip-rule="nonzero"/></clipPath><clipPath id="b935c414f7"><path d="M 141.5625 167.460938 L 233.777344 167.460938 L 233.777344 184.148438 L 141.5625 184.148438 Z M 141.5625 167.460938 " clip-rule="nonzero"/></clipPath><clipPath id="892993b439"><path d="M 141.5625 170.738281 L 233.777344 170.738281 L 233.777344 199.34375 L 141.5625 199.34375 Z M 141.5625 170.738281 " clip-rule="nonzero"/></clipPath></defs><rect x="-37.5" width="450" fill="#ffffff" y="-37.499999" height="449.999989" fill-opacity="1"/><rect x="-37.5" width="450" fill="#f5fbff" y="-37.499999" height="449.999989" fill-opacity="1"/><path fill="#e1ebf1" d="M 108.171875 123.695312 C 88.882812 148.039062 81.90625 189.867188 108.171875 217.113281 C 134.4375 244.359375 178.027344 233.65625 208.800781 238.519531 C 239.574219 243.378906 277.519531 243.378906 285.285156 200.570312 C 293.085938 157.761719 274.582031 147.058594 222.011719 116.875 C 169.441406 86.691406 145.175781 76.96875 108.171875 123.695312 Z M 108.171875 123.695312 " fill-opacity="1" fill-rule="nonzero"/><path fill="#293241" d="M 196.628906 141.015625 C 189.242188 142.355469 181.851562 143.667969 174.496094 145.007812 L 165.191406 136.695312 C 163.367188 134.9375 161.394531 132.464844 161.78125 129.84375 C 162.109375 127.488281 164.027344 127.101562 165.402344 124.03125 C 167.253906 119.976562 164.804688 118.578125 166.296875 114.613281 C 167.945312 110.265625 171.59375 110.058594 172.429688 105.886719 C 172.820312 103.917969 172.371094 102.160156 171.953125 101.058594 C 171.742188 98.257812 171.503906 95.453125 171.292969 92.683594 C 170.605469 90.867188 169.648438 87.5 170.457031 83.566406 C 171.59375 78.023438 175.929688 72.691406 181.910156 71.289062 C 185.023438 70.546875 187.746094 71.082031 189.300781 71.527344 C 190.558594 71.289062 198.78125 69.859375 204.285156 74.984375 C 210.957031 81.210938 208.265625 92.175781 207.636719 94.769531 C 206.976562 97.480469 205.992188 99.628906 205.152344 101.148438 C 205.003906 102.28125 204.882812 104.097656 205.574219 106.09375 C 206.828125 109.878906 209.640625 110.773438 211.316406 114.40625 C 212.722656 117.445312 210.988281 118.070312 212.242188 121.351562 C 213.617188 124.925781 215.800781 125.222656 217.207031 128.261719 C 218.046875 130.050781 218.644531 132.910156 217.328125 137.292969 C 211.554688 138.335938 205.8125 139.378906 200.039062 140.421875 M 200.039062 140.421875 C 198.902344 140.628906 197.765625 140.835938 196.628906 141.046875 " fill-opacity="1" fill-rule="nonzero"/><g clip-path="url(#64e6af0efc)"><path fill="#98c1d9" d="M 224.085938 208.238281 C 224.566406 210.890625 225.046875 213.574219 225.492188 216.222656 M 225.492188 216.222656 C 215.023438 218.519531 201.355469 220.394531 185.414062 219.742188 C 175.511719 219.324219 166.6875 218.011719 159.210938 216.433594 C 159.839844 212.320312 160.464844 208.179688 161.0625 204.066406 C 159.570312 203.324219 157.984375 202.488281 156.335938 201.472656 C 154.183594 200.132812 152.269531 198.792969 150.65625 197.480469 C 149.457031 191.285156 148.53125 183.328125 149.097656 174.089844 C 149.878906 160.890625 153.347656 150.164062 156.546875 142.65625 C 157.863281 139.585938 160.734375 138.511719 160.734375 138.511719 C 162.289062 137.558594 163.367188 137.378906 166.449219 136.398438 C 167.972656 135.921875 170.1875 135.175781 172.910156 134.132812 C 182.601562 133.894531 192.230469 133.65625 201.863281 133.386719 C 207.007812 134.667969 212.152344 135.980469 217.328125 137.261719 C 220.019531 137.945312 222.171875 139.972656 222.980469 142.65625 C 224.804688 148.734375 226.570312 155.230469 228.125 162.171875 C 230.667969 173.523438 232.285156 184.101562 233.269531 193.667969 C 232.703125 195.066406 231.746094 196.886719 230.191406 198.761719 C 227.765625 201.683594 225.015625 203.261719 223.339844 204.066406 C 223.578125 205.46875 223.816406 206.835938 224.085938 208.238281 " fill-opacity="1" fill-rule="nonzero"/></g><g clip-path="url(#b935c414f7)"><path fill="#e0fbfc" d="M 201.742188 178.949219 L 175.601562 184.042969 L 141.5625 174.238281 C 142.640625 173.316406 143.6875 172.394531 144.761719 171.46875 C 151.042969 169.859375 161.332031 168.160156 173.507812 170.484375 C 179.011719 171.527344 183.675781 173.195312 187.417969 174.835938 C 194.386719 171.171875 207.128906 165.988281 222.441406 167.953125 C 225.523438 168.339844 228.363281 168.996094 230.964844 169.769531 C 231.894531 170.753906 232.820312 171.738281 233.777344 172.71875 L 204.433594 178.441406 M 204.433594 178.441406 L 201.742188 178.976562 " fill-opacity="1" fill-rule="nonzero"/></g><g clip-path="url(#892993b439)"><path fill="#293241" d="M 197.316406 195.902344 C 193.875 197.035156 190.4375 198.167969 186.996094 199.300781 L 146.40625 195.8125 C 144.792969 188.632812 143.175781 181.421875 141.5625 174.238281 C 148.472656 173.585938 157.054688 173.375 166.835938 174.539062 C 174.433594 175.433594 181.105469 176.980469 186.667969 178.621094 C 190.585938 176.535156 195.550781 174.390625 201.476562 172.867188 C 215.144531 169.414062 226.898438 171.082031 233.75 172.691406 C 231.058594 178.410156 228.363281 184.132812 225.671875 189.851562 C 220.167969 190.570312 214.664062 191.285156 209.191406 191.96875 C 206.828125 192.746094 204.433594 193.550781 202.042969 194.324219 M 202.042969 194.324219 C 200.457031 194.859375 198.871094 195.367188 197.316406 195.902344 " fill-opacity="1" fill-rule="nonzero"/></g><path fill="#ce8e72" d="M 175.929688 132.730469 C 175.121094 133.269531 174.164062 133.773438 172.96875 134.132812 C 174.945312 134.90625 177.8125 135.832031 181.402344 136.339844 C 181.164062 139.109375 181.164062 142.863281 182.03125 147.15625 C 183.109375 152.488281 185.082031 156.570312 186.636719 159.222656 C 188.464844 156.777344 190.914062 152.84375 192.5 147.480469 C 193.875 142.863281 194.117188 138.8125 194.054688 135.980469 C 194.027344 135.980469 193.996094 135.980469 193.964844 135.949219 C 197.378906 135.265625 200.070312 134.222656 201.894531 133.386719 C 200.039062 132.792969 198.722656 131.957031 197.796875 131.183594 C 192.5 126.863281 192.621094 119.351562 192.859375 116.582031 C 196.332031 114.644531 198.453125 111.101562 199.261719 109.757812 C 201.265625 106.390625 201.773438 103.144531 201.894531 101.265625 C 202.582031 101.476562 203.925781 101.773438 205.183594 101.175781 C 207.847656 99.835938 208.503906 95.007812 206.5 93.429688 C 206.289062 93.25 205.304688 92.535156 203.238281 93.011719 C 202.910156 93.609375 202.613281 94.234375 202.28125 94.828125 C 201.894531 94.054688 201.503906 92.984375 201.265625 91.640625 C 200.9375 89.734375 201.117188 88.15625 201.324219 87.113281 C 200.605469 86.992188 199.320312 86.695312 198.003906 85.832031 C 196.480469 84.816406 195.671875 83.566406 195.3125 82.910156 C 194.921875 83.148438 193.546875 84.011719 191.664062 83.804688 C 189.867188 83.625 188.730469 82.613281 188.402344 82.285156 C 187.894531 82.761719 186.519531 83.894531 184.394531 84.222656 C 182.539062 84.519531 181.074219 84.074219 180.417969 83.804688 C 180.117188 84.402344 179.640625 85.207031 178.832031 85.980469 C 177.515625 87.261719 176.050781 87.738281 175.300781 87.917969 C 175.300781 88.839844 175.242188 89.855469 175.09375 90.925781 C 174.945312 92.117188 174.734375 93.21875 174.496094 94.175781 C 174.136719 93.667969 173.777344 93.132812 173.386719 92.625 C 172.3125 92.296875 171.683594 92.476562 171.292969 92.683594 C 169.230469 93.847656 169.289062 99.597656 171.953125 101.027344 C 172.371094 101.265625 173.179688 101.566406 174.523438 101.265625 C 174.464844 102.992188 174.582031 106.71875 176.828125 110.441406 C 177.394531 111.398438 179.308594 114.316406 182.332031 116.226562 C 182.421875 119.59375 182.121094 128.589844 175.929688 132.730469 Z M 209.371094 195.632812 C 209.28125 197.242188 208.953125 198.585938 208.652344 199.566406 C 189.152344 199.539062 183.675781 197.78125 182.929688 195.933594 C 182.808594 195.605469 182.449219 194.351562 181.492188 192.832031 C 180.265625 190.894531 179.339844 190.539062 179.011719 189.289062 C 178.800781 188.453125 178.800781 187.171875 180.058594 185.296875 C 182.660156 186.488281 186.21875 187.828125 190.648438 188.601562 C 195.101562 189.40625 198.992188 189.378906 201.832031 189.136719 C 201.476562 188.632812 200.964844 187.765625 200.785156 186.574219 C 200.546875 184.996094 200.875 183.03125 201.476562 182.941406 C 202.164062 182.851562 202.523438 185.175781 204.34375 187.707031 C 205.839844 189.792969 207.695312 191.105469 209.160156 191.9375 C 209.339844 192.921875 209.460938 194.175781 209.371094 195.632812 " fill-opacity="1" fill-rule="nonzero"/><path fill="#293241" d="M 184.003906 190.421875 C 184.003906 190.390625 184.003906 190.359375 184.035156 190.332031 C 184.035156 190.269531 184.003906 190.210938 183.945312 190.179688 C 182.273438 189.167969 180.835938 188.097656 179.519531 186.636719 C 179.339844 186.425781 179.042969 186.722656 179.21875 186.933594 C 180.445312 188.335938 182.0625 189.675781 183.765625 190.511719 C 183.855469 190.539062 183.945312 190.480469 184.003906 190.421875 Z M 194.863281 193.191406 C 191.246094 192.804688 187.65625 192.953125 184.003906 192.328125 L 183.976562 192.328125 C 183.945312 192.296875 183.917969 192.265625 183.886719 192.238281 C 182.539062 191.613281 181.34375 190.984375 180.207031 190.003906 C 180 189.824219 179.699219 190.121094 179.910156 190.300781 C 180.957031 191.3125 182.273438 192.265625 183.707031 192.683594 C 183.765625 192.714844 183.828125 192.683594 183.855469 192.683594 C 183.886719 192.683594 183.886719 192.714844 183.917969 192.714844 C 187.328125 193.757812 191.425781 194.5625 194.984375 193.847656 C 195.371094 193.789062 195.222656 193.21875 194.863281 193.191406 Z M 194.296875 195.664062 C 191.722656 195.664062 189.121094 195.875 186.519531 195.695312 C 186.488281 195.664062 186.460938 195.632812 186.398438 195.605469 C 185.832031 195.367188 185.171875 195.335938 184.605469 195.15625 C 183.945312 194.949219 183.289062 194.679688 182.660156 194.414062 C 182.480469 194.324219 182.332031 194.59375 182.511719 194.679688 C 183.46875 195.246094 184.722656 195.902344 185.890625 196.050781 C 185.921875 196.109375 185.980469 196.171875 186.039062 196.171875 C 188.792969 196.558594 191.484375 196.976562 194.296875 196.648438 C 194.921875 196.589844 194.953125 195.664062 194.296875 195.664062 Z M 184.003906 190.421875 C 184.035156 190.390625 184.035156 190.359375 184.035156 190.332031 C 184.066406 190.269531 184.15625 190.210938 184.246094 190.242188 C 187.683594 190.867188 191.183594 190.867188 194.625 191.433594 C 195.074219 191.492188 194.894531 192.117188 194.535156 192.148438 C 191.125 192.476562 187.417969 191.523438 184.15625 190.628906 C 184.035156 190.597656 184.003906 190.511719 184.003906 190.421875 " fill-opacity="1" fill-rule="nonzero"/><path fill="#ffffff" d="M 181.644531 97.929688 C 183.40625 98.019531 184.542969 96.945312 184.753906 96.765625 C 184.425781 95.453125 183.289062 94.53125 181.972656 94.472656 C 180.566406 94.410156 179.25 95.367188 178.890625 96.765625 C 179.160156 96.976562 180.148438 97.839844 181.644531 97.929688 Z M 195.582031 98.167969 C 193.816406 98.257812 192.679688 97.183594 192.472656 97.003906 C 192.800781 95.695312 193.9375 94.769531 195.253906 94.710938 C 196.660156 94.652344 197.976562 95.605469 198.335938 97.003906 C 198.0625 97.214844 197.078125 98.109375 195.582031 98.167969 " fill-opacity="1" fill-rule="nonzero"/><path fill="#293241" d="M 182.300781 86.578125 C 186.128906 86.933594 189.300781 83.296875 190.019531 79.8125 C 190.136719 79.1875 189.242188 78.710938 188.910156 79.335938 C 188.164062 80.707031 187.746094 82.195312 186.726562 83.417969 C 185.621094 84.789062 184.066406 85.683594 182.273438 85.742188 C 181.761719 85.769531 181.792969 86.515625 182.300781 86.578125 Z M 194.027344 115.835938 C 190.527344 117.445312 185.324219 118.488281 181.972656 115.984375 C 181.734375 115.808594 181.433594 116.195312 181.671875 116.375 C 184.964844 118.996094 191.214844 119.203125 194.445312 116.375 C 194.746094 116.105469 194.355469 115.6875 194.027344 115.835938 Z M 204.195312 95.304688 C 204.585938 95.1875 204.945312 95.21875 205.214844 95.515625 C 205.484375 95.785156 205.484375 96.140625 205.722656 96.410156 C 205.902344 96.585938 206.261719 96.558594 206.351562 96.320312 C 206.621094 95.753906 206.140625 95.128906 205.664062 94.828125 C 205.183594 94.5 204.527344 94.441406 203.957031 94.621094 C 203.570312 94.742188 203.746094 95.453125 204.195312 95.304688 Z M 171.472656 95.871094 C 171.714844 95.632812 171.683594 95.246094 171.832031 94.949219 C 171.953125 94.652344 172.28125 94.53125 172.550781 94.742188 C 172.761719 94.917969 173.027344 94.5625 172.851562 94.351562 C 172.488281 93.996094 171.980469 94.027344 171.5625 94.261719 C 171.113281 94.5 170.605469 95.1875 170.785156 95.695312 C 170.875 95.992188 171.234375 96.113281 171.472656 95.871094 Z M 188.554688 111.664062 C 188.253906 111.753906 188.015625 111.933594 187.714844 112.023438 C 187.59375 112.054688 187.445312 112.082031 187.296875 112.113281 C 187.175781 112.144531 187.027344 112.261719 186.90625 112.261719 C 186.878906 112.261719 186.878906 112.292969 186.90625 112.292969 C 187.058594 112.410156 187.085938 112.558594 187.296875 112.679688 C 187.476562 112.769531 187.683594 112.796875 187.894531 112.796875 C 188.3125 112.796875 188.792969 112.648438 189.0625 112.292969 C 189.242188 111.964844 188.882812 111.574219 188.554688 111.664062 Z M 193.160156 107.792969 C 193.609375 107.164062 192.589844 106.628906 192.144531 107.195312 C 190.378906 109.488281 186.878906 111.605469 184.542969 108.6875 C 184.304688 108.386719 183.765625 108.773438 184.003906 109.101562 C 186.578125 112.617188 191.066406 110.773438 193.160156 107.792969 Z M 186.96875 103.292969 C 186.789062 104.664062 187.476562 105.675781 188.851562 105.824219 C 189.089844 105.855469 189.121094 105.46875 188.910156 105.40625 C 186.339844 104.574219 188.972656 101.503906 189.210938 100.015625 C 189.390625 98.882812 189.511719 97.628906 189.242188 96.496094 C 189.121094 95.992188 188.433594 96.082031 188.285156 96.496094 C 187.925781 97.539062 188.195312 98.523438 188.132812 99.597656 C 188.042969 100.9375 187.117188 101.949219 186.96875 103.292969 Z M 176.859375 93.429688 C 178.832031 92.566406 182.511719 92.117188 184.335938 93.636719 C 184.695312 93.9375 185.171875 93.457031 184.84375 93.132812 C 182.660156 91.074219 178.742188 90.746094 176.167969 92.265625 C 175.421875 92.714844 176.078125 93.757812 176.859375 93.429688 Z M 200.488281 92.265625 C 197.914062 90.71875 193.996094 91.046875 191.8125 93.132812 C 191.484375 93.457031 191.960938 93.9375 192.320312 93.636719 C 194.148438 92.117188 197.824219 92.59375 199.800781 93.429688 C 200.578125 93.757812 201.234375 92.714844 200.488281 92.265625 Z M 184.515625 96.707031 C 184.664062 96.945312 185.082031 96.796875 184.964844 96.527344 C 184.484375 95.335938 183.320312 94.292969 182.003906 94.113281 C 180.445312 93.875 179.25 95.007812 178.53125 96.230469 C 178.382812 96.496094 178.742188 96.765625 178.953125 96.558594 C 179.398438 96.140625 179.847656 95.695312 180.328125 95.335938 C 180.089844 96.199219 180.328125 97.214844 181.253906 97.601562 C 182.511719 98.109375 183.4375 96.765625 183.230469 95.632812 C 183.199219 95.484375 183.140625 95.335938 183.078125 95.1875 C 183.675781 95.515625 184.125 96.082031 184.515625 96.707031 Z M 195.195312 94.351562 C 193.875 94.5625 192.710938 95.605469 192.230469 96.765625 C 192.113281 97.035156 192.53125 97.183594 192.679688 96.945312 C 193.070312 96.289062 193.519531 95.753906 194.117188 95.425781 C 194.054688 95.542969 193.996094 95.695312 193.964844 95.871094 C 193.757812 97.003906 194.683594 98.375 195.941406 97.839844 C 196.839844 97.480469 197.105469 96.4375 196.867188 95.574219 C 197.347656 95.933594 197.796875 96.378906 198.242188 96.796875 C 198.484375 97.003906 198.84375 96.738281 198.664062 96.46875 C 197.976562 95.246094 196.75 94.113281 195.195312 94.351562 Z M 227.886719 200.402344 C 222.144531 205.617188 214.964844 208.625 207.21875 208.984375 C 209.402344 203.679688 210.296875 197.71875 209.222656 192.058594 C 209.160156 191.730469 208.625 191.820312 208.625 192.148438 C 208.714844 197.871094 208.023438 203.234375 205.992188 208.566406 C 203.570312 206.480469 202.25 202.90625 201.804688 199.894531 C 201.773438 199.597656 201.234375 199.65625 201.265625 199.957031 C 201.714844 203.324219 202.613281 208.03125 205.8125 209.964844 C 205.902344 210.175781 206.082031 210.324219 206.378906 210.324219 C 214.578125 210.027344 222.472656 206.628906 228.246094 200.820312 C 228.542969 200.519531 228.15625 200.164062 227.886719 200.402344 Z M 186.996094 199.238281 C 182.121094 200.371094 177.304688 201.652344 172.402344 202.667969 C 168.035156 203.558594 162.917969 205.199219 158.792969 202.785156 C 158.582031 202.667969 158.3125 202.964844 158.523438 203.144531 C 161.691406 205.734375 166.238281 204.753906 169.949219 204.128906 C 175.78125 203.144531 181.644531 202.042969 187.328125 200.34375 C 187.984375 200.132812 187.714844 199.089844 186.996094 199.238281 Z M 216.429688 165.6875 C 216.609375 163.421875 216.308594 161.070312 216.28125 158.777344 C 216.25 156.480469 216.28125 154.1875 216.460938 151.890625 C 216.488281 151.503906 215.921875 151.535156 215.890625 151.890625 C 215.292969 156.332031 214.484375 161.398438 215.472656 165.808594 C 215.5625 166.402344 216.398438 166.226562 216.429688 165.6875 Z M 163.066406 153.710938 C 162.980469 153.234375 163.695312 153.023438 163.785156 153.5 C 164.984375 158.507812 165.609375 163.574219 165.730469 168.726562 C 165.730469 169.414062 164.652344 169.414062 164.652344 168.726562 C 164.625 163.691406 164.085938 158.65625 163.066406 153.710938 " fill-opacity="1" fill-rule="nonzero"/><path fill="#98c1d9" d="M 194.027344 137.292969 C 192.53125 137.441406 191.003906 137.441406 189.601562 137.5 C 186.488281 137.558594 183.347656 137.53125 180.265625 136.992188 C 179.878906 136.933594 180.027344 136.398438 180.355469 136.339844 C 183.40625 135.980469 186.488281 136.128906 189.601562 136.007812 C 192.652344 135.890625 195.703125 135.296875 198.722656 135.234375 C 199.351562 135.234375 199.382812 136.070312 198.871094 136.277344 C 197.824219 136.664062 196.71875 136.933594 195.582031 137.113281 M 195.582031 137.113281 C 195.074219 137.203125 194.566406 137.261719 194.027344 137.292969 " fill-opacity="1" fill-rule="nonzero"/><path fill="#98c1d9" d="M 204.644531 178.382812 C 204.316406 178.472656 204.375 179.007812 204.734375 178.949219 C 205.871094 178.800781 207.007812 178.738281 208.144531 178.710938 C 209.160156 178.710938 210.238281 178.949219 211.195312 178.648438 C 211.644531 178.5 211.585938 177.964844 211.195312 177.816406 C 209.429688 177.070312 206.46875 177.964844 204.644531 178.382812 Z M 216.757812 175.609375 C 217.296875 175.550781 217.535156 174.6875 216.910156 174.566406 C 214.394531 174.089844 211.613281 174.507812 209.070312 174.835938 C 206.082031 175.222656 203.148438 175.910156 200.21875 176.714844 C 199.890625 176.804688 200.039062 177.277344 200.367188 177.1875 C 203.148438 176.503906 205.992188 176.085938 208.832031 175.878906 C 211.464844 175.699219 214.1875 175.9375 216.757812 175.609375 Z M 186.28125 186.277344 C 186.460938 183.746094 186.21875 181.125 186.070312 178.589844 C 186.039062 178.230469 185.53125 178.230469 185.5 178.589844 C 185.351562 181.125 185.082031 183.746094 185.292969 186.277344 C 185.324219 186.902344 186.21875 186.902344 186.28125 186.277344 " fill-opacity="1" fill-rule="nonzero"/><g fill="#293241" fill-opacity="1"><g transform="translate(124.141463, 306.062787)"><g><path d="M 1.34375 -8.21875 L 2.203125 -8.21875 L 2.203125 -0.75 L 6.8125 -0.75 L 6.8125 0 L 1.34375 0 Z M 1.34375 -8.21875 "/></g></g></g><g fill="#293241" fill-opacity="1"><g transform="translate(134.806731, 306.062787)"><g><path d="M 7.140625 -0.75 L 7.140625 0 L 1.34375 0 L 1.34375 -8.21875 L 6.96875 -8.21875 L 6.96875 -7.46875 L 2.203125 -7.46875 L 2.203125 -4.546875 L 6.453125 -4.546875 L 6.453125 -3.796875 L 2.203125 -3.796875 L 2.203125 -0.75 Z M 7.140625 -0.75 "/></g></g></g><g fill="#293241" fill-opacity="1"><g transform="translate(146.410205, 306.062787)"><g><path d="M 2.9375 -7.46875 L 0.046875 -7.46875 L 0.046875 -8.21875 L 6.6875 -8.21875 L 6.6875 -7.46875 L 3.796875 -7.46875 L 3.796875 0 L 2.9375 0 Z M 2.9375 -7.46875 "/></g></g></g><g fill="#293241" fill-opacity="1"><g transform="translate(156.899565, 306.062787)"><g><path d="M 1.25 -8.765625 C 1.4375 -8.765625 1.585938 -8.703125 1.703125 -8.578125 C 1.816406 -8.460938 1.875 -8.3125 1.875 -8.125 C 1.875 -8.03125 1.859375 -7.929688 1.828125 -7.828125 C 1.804688 -7.722656 1.769531 -7.601562 1.71875 -7.46875 L 1.21875 -5.84375 L 0.65625 -5.84375 L 1.0625 -7.53125 C 0.9375 -7.570312 0.832031 -7.644531 0.75 -7.75 C 0.675781 -7.851562 0.640625 -7.976562 0.640625 -8.125 C 0.640625 -8.3125 0.695312 -8.460938 0.8125 -8.578125 C 0.925781 -8.703125 1.070312 -8.765625 1.25 -8.765625 Z M 1.25 -8.765625 "/></g></g></g><g fill="#293241" fill-opacity="1"><g transform="translate(163.143554, 306.062787)"><g><path d="M 3.609375 0.078125 C 2.992188 0.078125 2.40625 -0.0195312 1.84375 -0.21875 C 1.289062 -0.414062 0.859375 -0.675781 0.546875 -1 L 0.890625 -1.671875 C 1.191406 -1.367188 1.585938 -1.125 2.078125 -0.9375 C 2.566406 -0.757812 3.078125 -0.671875 3.609375 -0.671875 C 4.335938 -0.671875 4.882812 -0.804688 5.25 -1.078125 C 5.625 -1.347656 5.8125 -1.695312 5.8125 -2.125 C 5.8125 -2.445312 5.707031 -2.707031 5.5 -2.90625 C 5.300781 -3.101562 5.054688 -3.253906 4.765625 -3.359375 C 4.484375 -3.460938 4.082031 -3.578125 3.5625 -3.703125 C 2.945312 -3.859375 2.453125 -4.007812 2.078125 -4.15625 C 1.710938 -4.300781 1.398438 -4.519531 1.140625 -4.8125 C 0.878906 -5.113281 0.75 -5.519531 0.75 -6.03125 C 0.75 -6.445312 0.859375 -6.820312 1.078125 -7.15625 C 1.296875 -7.5 1.628906 -7.769531 2.078125 -7.96875 C 2.535156 -8.175781 3.101562 -8.28125 3.78125 -8.28125 C 4.25 -8.28125 4.707031 -8.210938 5.15625 -8.078125 C 5.601562 -7.953125 5.992188 -7.78125 6.328125 -7.5625 L 6.03125 -6.859375 C 5.6875 -7.085938 5.316406 -7.257812 4.921875 -7.375 C 4.535156 -7.488281 4.15625 -7.546875 3.78125 -7.546875 C 3.0625 -7.546875 2.519531 -7.40625 2.15625 -7.125 C 1.789062 -6.851562 1.609375 -6.5 1.609375 -6.0625 C 1.609375 -5.726562 1.707031 -5.460938 1.90625 -5.265625 C 2.101562 -5.066406 2.351562 -4.910156 2.65625 -4.796875 C 2.957031 -4.691406 3.363281 -4.578125 3.875 -4.453125 C 4.476562 -4.304688 4.960938 -4.160156 5.328125 -4.015625 C 5.703125 -3.867188 6.019531 -3.648438 6.28125 -3.359375 C 6.539062 -3.066406 6.671875 -2.671875 6.671875 -2.171875 C 6.671875 -1.753906 6.554688 -1.375 6.328125 -1.03125 C 6.109375 -0.695312 5.765625 -0.425781 5.296875 -0.21875 C 4.835938 -0.0195312 4.273438 0.078125 3.609375 0.078125 Z M 3.609375 0.078125 "/></g></g></g><g fill="#293241" fill-opacity="1"><g transform="translate(174.126297, 306.062787)"><g/></g></g><g fill="#293241" fill-opacity="1"><g transform="translate(180.956653, 306.062787)"><g/></g></g><g fill="#293241" fill-opacity="1"><g transform="translate(187.787008, 306.062787)"><g/></g></g><g fill="#293241" fill-opacity="1"><g transform="translate(194.62644, 306.062787)"><g><path d="M 1.34375 -8.21875 L 2.203125 -8.21875 L 2.203125 -0.75 L 6.8125 -0.75 L 6.8125 0 L 1.34375 0 Z M 1.34375 -8.21875 "/></g></g></g><g fill="#293241" fill-opacity="1"><g transform="translate(205.291707, 306.062787)"><g><path d="M 7.140625 -0.75 L 7.140625 0 L 1.34375 0 L 1.34375 -8.21875 L 6.96875 -8.21875 L 6.96875 -7.46875 L 2.203125 -7.46875 L 2.203125 -4.546875 L 6.453125 -4.546875 L 6.453125 -3.796875 L 2.203125 -3.796875 L 2.203125 -0.75 Z M 7.140625 -0.75 "/></g></g></g><g fill="#293241" fill-opacity="1"><g transform="translate(216.895182, 306.062787)"><g><path d="M 6.484375 -2.1875 L 1.90625 -2.1875 L 0.921875 0 L 0.03125 0 L 3.78125 -8.21875 L 4.640625 -8.21875 L 8.390625 0 L 7.46875 0 Z M 6.171875 -2.890625 L 4.203125 -7.3125 L 2.234375 -2.890625 Z M 6.171875 -2.890625 "/></g></g></g><g fill="#293241" fill-opacity="1"><g transform="translate(229.061574, 306.062787)"><g><path d="M 6.953125 0 L 5.0625 -2.640625 C 4.851562 -2.617188 4.632812 -2.609375 4.40625 -2.609375 L 2.203125 -2.609375 L 2.203125 0 L 1.34375 0 L 1.34375 -8.21875 L 4.40625 -8.21875 C 5.457031 -8.21875 6.28125 -7.96875 6.875 -7.46875 C 7.46875 -6.96875 7.765625 -6.273438 7.765625 -5.390625 C 7.765625 -4.753906 7.601562 -4.210938 7.28125 -3.765625 C 6.957031 -3.328125 6.492188 -3.007812 5.890625 -2.8125 L 7.890625 0 Z M 4.390625 -3.34375 C 5.203125 -3.34375 5.820312 -3.519531 6.25 -3.875 C 6.6875 -4.238281 6.90625 -4.742188 6.90625 -5.390625 C 6.90625 -6.054688 6.6875 -6.566406 6.25 -6.921875 C 5.820312 -7.285156 5.203125 -7.46875 4.390625 -7.46875 L 2.203125 -7.46875 L 2.203125 -3.34375 Z M 4.390625 -3.34375 "/></g></g></g><g fill="#293241" fill-opacity="1"><g transform="translate(241.298329, 306.062787)"><g><path d="M 8.203125 -8.21875 L 8.203125 0 L 7.484375 0 L 2.203125 -6.671875 L 2.203125 0 L 1.34375 0 L 1.34375 -8.21875 L 2.046875 -8.21875 L 7.34375 -1.546875 L 7.34375 -8.21875 Z M 8.203125 -8.21875 "/></g></g></g></svg>